<svg width="329" height="294" viewBox="0 0 329 294" fill="none" xmlns="http://www.w3.org/2000/svg">
<ellipse cx="172.5" cy="237" rx="142.5" ry="52" fill="#C4C4C4"/>
<ellipse cx="174" cy="243" rx="136" ry="46" fill="black"/>
<path d="M152.649 146L130 150.004L154.5 288.5C154.645 288.601 159.339 288.767 165 289C165 289 177.943 289.092 178 289C178.057 288.908 152.649 146 152.649 146Z" fill="#673E00"/>
<g filter="url(#filter0_d)">
<rect x="0.971863" y="64.6261" width="255.188" height="139.193" transform="rotate(-10.678 0.971863 64.6261)" fill="#F3F3F3"/>
</g>
<path d="M43.2949 149.67L40.2842 134.792L64.4926 79.1655L85.0852 74.9985L94.7281 122.653L103.569 120.864L106.798 136.82L97.957 138.609L100.793 152.625L82.3568 156.356L79.5207 142.34L43.2949 149.67ZM72.0442 98.7365L59.4727 129.787L77.5856 126.122L72.0442 98.7365ZM110.483 108.578C107.981 96.2156 108.383 85.9964 111.687 77.9206C115.062 69.8304 122.069 64.709 132.707 62.5564C143.345 60.4038 151.755 62.4055 157.939 68.5613C164.195 74.7026 168.573 83.9547 171.075 96.3174C173.606 108.824 173.183 119.122 169.807 127.213C166.503 135.288 159.533 140.402 148.895 142.555C138.257 144.708 129.81 142.713 123.555 136.572C117.371 130.416 113.014 121.085 110.483 108.578ZM152.962 99.9826C151.493 92.7231 149.575 87.3126 147.209 83.7513C144.827 80.118 141.157 78.8032 136.198 79.8068C131.238 80.8103 128.368 83.4487 127.586 87.7219C126.79 91.9232 127.127 97.6536 128.596 104.913C129.585 109.801 130.694 113.804 131.924 116.922C133.139 119.968 134.812 122.323 136.945 123.986C139.134 125.563 141.954 126.003 145.404 125.305C148.854 124.607 151.245 123.113 152.578 120.823C153.967 118.447 154.63 115.619 154.565 112.34C154.485 108.989 153.951 104.87 152.962 99.9826ZM186.592 120.674L183.581 105.795L207.789 50.169L228.382 46.002L238.025 93.6562L246.866 91.8672L250.095 107.824L241.254 109.613L244.09 123.629L225.654 127.359L222.818 113.343L186.592 120.674ZM215.341 69.7401L202.77 100.79L220.882 97.125L215.341 69.7401Z" fill="black"/>
<defs>
<filter id="filter0_d" x="0.971863" y="17.3423" width="327.56" height="253.067" filterUnits="userSpaceOnUse" color-interpolation-filters="sRGB">
<feFlood flood-opacity="0" result="BackgroundImageFix"/>
<feColorMatrix in="SourceAlpha" type="matrix" values="0 0 0 0 0 0 0 0 0 0 0 0 0 0 0 0 0 0 127 0"/>
<feOffset dx="30" dy="48"/>
<feGaussianBlur stdDeviation="10.5"/>
<feColorMatrix type="matrix" values="0 0 0 0 0 0 0 0 0 0 0 0 0 0 0 0 0 0 0.25 0"/>
<feBlend mode="normal" in2="BackgroundImageFix" result="effect1_dropShadow"/>
<feBlend mode="normal" in="SourceGraphic" in2="effect1_dropShadow" result="shape"/>
</filter>
</defs>
</svg>
