<svg width="24" height="24" viewBox="0 0 24 24" fill="none" xmlns="http://www.w3.org/2000/svg">
<g clip-path="url(#clip0)">
<path d="M16.0637 12.0004L23.1581 4.90662C24.2806 3.7841 24.2806 1.96438 23.1581 0.842436C22.0367 -0.27951 20.2158 -0.27951 19.0945 0.842436L12.0001 7.93737L4.90574 0.842436C3.78437 -0.27951 1.96351 -0.27951 0.842135 0.842436C-0.280386 1.96496 -0.280386 3.78467 0.842135 4.90662L7.93592 12.0004L0.842135 19.0942C-0.280386 20.2167 -0.280386 22.0364 0.842135 23.1584C1.40253 23.7199 2.13881 23.9998 2.87394 23.9998C3.60849 23.9998 4.34534 23.7199 4.90574 23.1584L12.0001 16.0646L19.0945 23.1589C19.6554 23.7205 20.3911 24.0004 21.1263 24.0004C21.8614 24.0004 22.5977 23.7205 23.1581 23.1589C24.2806 22.0364 24.2806 20.2167 23.1581 19.0948L16.0637 12.0004Z" fill="#1F2033"/>
</g>
<defs>
<clipPath id="clip0">
<rect width="24" height="24" fill="white"/>
</clipPath>
</defs>
</svg>
