<svg width="30" height="30" viewBox="0 0 30 30" fill="none" xmlns="http://www.w3.org/2000/svg">
<path d="M6.37472 23.9189C5.05531 23.9173 3.77937 23.4471 2.77444 22.5921C1.76951 21.7371 1.10094 20.553 0.887959 19.2509C0.674974 17.9488 0.931423 16.6134 1.61157 15.4828C2.29172 14.3522 3.35135 13.4999 4.60148 13.078C4.73477 12.172 5.1885 11.3439 5.88029 10.744C6.57208 10.1441 7.45607 9.81212 8.37175 9.80839C9.00569 9.8081 9.62943 9.96791 10.1851 10.273C10.8832 8.77517 12.0714 7.56035 13.5533 6.82927C15.0353 6.0982 16.7224 5.89463 18.3357 6.25222C19.949 6.6098 21.3921 7.50713 22.4263 8.79592C23.4606 10.0847 24.0242 11.6878 24.024 13.3403C24.024 13.4035 24.024 13.4668 24.02 13.5292C24.7031 13.5237 25.3805 13.6536 26.0131 13.9113C26.6457 14.169 27.221 14.5495 27.7058 15.0308C28.1906 15.5121 28.5753 16.0846 28.8376 16.7154C29.0999 17.3461 29.2347 18.0225 29.2341 18.7057C29.2336 19.3888 29.0977 20.065 28.8344 20.6953C28.5711 21.3257 28.1856 21.8976 27.7001 22.3781C27.2145 22.8586 26.6386 23.2382 26.0056 23.4949C25.3726 23.7517 24.695 23.8805 24.0119 23.8739L6.37472 23.9189ZM8.37256 10.618C7.61296 10.621 6.88254 10.9109 6.32764 11.4296C5.77274 11.9483 5.43435 12.6576 5.38027 13.4153C5.37444 13.4986 5.343 13.5782 5.29024 13.643C5.23748 13.7078 5.16598 13.7547 5.08554 13.7773C3.98234 14.0905 3.02946 14.7918 2.40243 15.752C1.77539 16.7122 1.51643 17.8666 1.67324 19.0026C1.83005 20.1386 2.39207 21.1798 3.25578 21.9342C4.11949 22.6886 5.22672 23.1055 6.37351 23.1081L24.0119 23.0619C24.5882 23.0675 25.1599 22.9588 25.6939 22.7421C26.228 22.5254 26.7138 22.205 27.1233 21.7994C27.5327 21.3939 27.8578 20.9112 28.0796 20.3792C28.3015 19.8473 28.4157 19.2767 28.4157 18.7004C28.4157 18.124 28.3015 17.5534 28.0796 17.0215C27.8578 16.4895 27.5327 16.0069 27.1233 15.6013C26.7138 15.1957 26.228 14.8753 25.6939 14.6587C25.1599 14.442 24.5882 14.3332 24.0119 14.3388H23.5886C23.5327 14.339 23.4773 14.3275 23.4259 14.3052C23.3746 14.2829 23.3284 14.2503 23.2904 14.2092C23.2523 14.1682 23.2231 14.1198 23.2047 14.0669C23.1862 14.0141 23.1789 13.958 23.1832 13.9022C23.1995 13.6995 23.2132 13.5219 23.2132 13.3391C23.2136 11.8336 22.6871 10.3755 21.7252 9.21742C20.7633 8.05935 19.4265 7.27436 17.9465 6.99848C16.4665 6.72261 14.9367 6.97325 13.6221 7.70697C12.3076 8.44068 11.2911 9.61122 10.749 11.0157C10.7266 11.0735 10.6911 11.1254 10.6455 11.1674C10.5998 11.2094 10.545 11.2404 10.4855 11.2579C10.426 11.2754 10.3632 11.279 10.3021 11.2684C10.2409 11.2578 10.183 11.2334 10.1328 11.1969C9.6223 10.8223 9.00578 10.62 8.37256 10.6192V10.618Z" fill="#1C1C1C"/>
<path d="M18.6487 20.6919H11.3515C11.2439 20.6919 11.1408 20.6492 11.0648 20.5732C10.9888 20.4971 10.946 20.394 10.946 20.2865V18.3276C10.946 18.22 10.9888 18.1169 11.0648 18.0409C11.1408 17.9649 11.2439 17.9222 11.3515 17.9222C11.459 17.9222 11.5621 17.9649 11.6381 18.0409C11.7141 18.1169 11.7569 18.22 11.7569 18.3276V19.8811H18.2433V18.3276C18.2433 18.22 18.2861 18.1169 18.3621 18.0409C18.4381 17.9649 18.5412 17.9222 18.6487 17.9222C18.7563 17.9222 18.8594 17.9649 18.9354 18.0409C19.0114 18.1169 19.0542 18.22 19.0542 18.3276V20.2865C19.0542 20.394 19.0114 20.4971 18.9354 20.5732C18.8594 20.6492 18.7563 20.6919 18.6487 20.6919Z" fill="#1C1C1C"/>
<path d="M14.9999 18.6486C14.8924 18.6486 14.7893 18.6059 14.7132 18.5299C14.6372 18.4539 14.5945 18.3508 14.5945 18.2432V12.3142C14.5945 12.2067 14.6372 12.1036 14.7132 12.0275C14.7893 11.9515 14.8924 11.9088 14.9999 11.9088C15.1074 11.9088 15.2105 11.9515 15.2866 12.0275C15.3626 12.1036 15.4053 12.2067 15.4053 12.3142V18.2432C15.4053 18.3508 15.3626 18.4539 15.2866 18.5299C15.2105 18.6059 15.1074 18.6486 14.9999 18.6486Z" fill="#1C1C1C"/>
<path d="M14.9998 18.6486C14.8923 18.6486 14.7892 18.6059 14.7132 18.5299L13.045 16.8616C12.9711 16.7852 12.9302 16.6828 12.9312 16.5765C12.9321 16.4702 12.9747 16.3685 13.0499 16.2933C13.1251 16.2182 13.2267 16.1755 13.333 16.1746C13.4393 16.1737 13.5417 16.2145 13.6182 16.2884L14.9998 17.67L16.3814 16.2884C16.4579 16.2145 16.5603 16.1737 16.6666 16.1746C16.7729 16.1755 16.8746 16.2182 16.9498 16.2933C17.0249 16.3685 17.0676 16.4702 17.0685 16.5765C17.0694 16.6828 17.0285 16.7852 16.9547 16.8616L15.2864 18.5299C15.2104 18.6059 15.1073 18.6486 14.9998 18.6486Z" fill="#1C1C1C"/>
</svg>
