<svg width="50" height="50" viewBox="0 0 50 50" fill="none" xmlns="http://www.w3.org/2000/svg">
<rect x="11.8642" y="6.35696" width="31.8016" height="43.643" fill="white"/>
<path d="M43.2622 0H6.73765C3.01662 0 0 3.01491 0 6.73411V43.2397C0 46.9589 3.0165 49.9738 6.73765 49.9738H24.7514L24.7821 32.1159H20.1402C19.5369 32.1159 19.0473 31.6284 19.045 31.0254L19.0227 25.2691C19.0204 24.6628 19.5115 24.1702 20.118 24.1702H24.7515V18.6081C24.7515 12.1533 28.6958 8.63863 34.4569 8.63863H39.1843C39.7891 8.63863 40.2796 9.12873 40.2796 9.73337V14.5872C40.2796 15.1916 39.7895 15.6815 39.1849 15.6819L36.2837 15.6833C33.1507 15.6833 32.544 17.1713 32.544 19.355V24.1703H39.4284C40.0844 24.1703 40.5933 24.7428 40.516 25.3939L39.8334 31.1502C39.7681 31.7011 39.3007 32.1161 38.7458 32.1161H32.5747L32.544 49.9741H43.2625C46.9835 49.9741 50 46.9592 50 43.2401V6.73411C49.9999 3.01491 46.9834 0 43.2622 0Z" fill="#475993"/>
</svg>
