<svg width="50" height="50" viewBox="0 0 50 50" fill="none" xmlns="http://www.w3.org/2000/svg">
<path d="M49.144 8.94318C48.6889 4.67911 45.3213 1.31073 41.0568 0.856018C30.3627 -0.285339 19.6373 -0.285339 8.94356 0.856018C4.67911 1.31111 1.31111 4.67911 0.856018 8.94318C-0.285339 19.6369 -0.285339 30.3627 0.856018 41.0564C1.31111 45.3209 4.67911 48.6889 8.94318 49.144C19.6369 50.2853 30.3627 50.2853 41.0568 49.144C45.3213 48.6889 48.6889 45.3209 49.144 41.0564C50.2853 30.3627 50.2853 19.6373 49.144 8.94318Z" fill="url(#paint0_radial)"/>
<path d="M46.4245 10.7517C46.0209 6.96793 43.0325 3.97912 39.2483 3.57514C29.7588 2.56272 20.2412 2.56272 10.7517 3.57514C6.96793 3.97912 3.97912 6.96793 3.57514 10.7517C2.56272 20.2412 2.56272 29.7588 3.57514 39.2479C3.97912 43.0321 6.96793 46.0209 10.7517 46.4245C20.2412 47.4373 29.7588 47.4373 39.2479 46.4245C43.0321 46.0209 46.0209 43.0321 46.4245 39.2479C47.4373 29.7588 47.4373 20.2412 46.4245 10.7517Z" fill="url(#paint1_linear)"/>
<path d="M0.749207 40.02C0.783539 40.3656 0.819016 40.7112 0.856018 41.0568C1.31111 45.3209 4.67911 48.6889 8.94356 49.144C19.6373 50.2853 30.3631 50.2853 41.0568 49.144C45.3213 48.6889 48.6889 45.3209 49.144 41.0568C49.181 40.7112 49.2165 40.3656 49.2512 40.02H0.749207Z" fill="url(#paint2_linear)"/>
<path d="M49.144 41.0564C49.7574 35.3104 50.0405 29.5551 49.9947 23.8007L38.5658 12.3718C37.138 10.7418 35.0525 9.72443 32.6019 9.63631C27.5623 9.45473 22.5067 9.46389 17.4664 9.63708C13.2801 9.78127 10.3527 12.595 9.60199 16.7305C9.46962 17.4606 9.39027 18.2003 9.28613 18.9358V31.0597C9.34373 31.4526 9.42842 31.8436 9.45474 32.2388C9.62259 34.7542 10.6564 36.9087 12.3116 38.3663L23.9418 49.9962C29.6494 50.0362 35.3573 49.7524 41.0568 49.144C45.3213 48.6889 48.6889 45.3209 49.144 41.0564Z" fill="url(#paint3_linear)"/>
<path d="M49.144 41.0568C48.6893 45.3205 45.3205 48.6893 41.0568 49.144C35.358 49.752 29.649 50.0362 23.9422 49.9962L12.3295 38.3835C13.6757 39.5618 15.4304 40.2794 17.4667 40.3561C22.5059 40.5453 27.5627 40.5403 32.6019 40.3587C37.1597 40.1939 40.4579 36.8206 40.6002 32.2628C40.752 27.4235 40.752 22.5716 40.6002 17.7322C40.5353 15.6296 39.7972 13.7794 38.5734 12.3795L49.995 23.801C50.04 29.5547 49.757 35.3107 49.144 41.0568Z" fill="url(#paint4_linear)"/>
<path d="M30.8998 19.5858C29.4357 17.9916 27.335 16.9914 25 16.9914C20.5772 16.9914 16.9914 20.5772 16.9914 25C16.9914 27.335 17.9916 29.4357 19.5858 30.8998L38.1149 49.4289C39.0957 49.3435 40.0764 49.2485 41.0564 49.144C45.3209 48.6889 48.6889 45.3209 49.144 41.0564C49.2485 40.0764 49.3435 39.0957 49.4289 38.1149L30.8998 19.5858Z" fill="url(#paint5_linear)"/>
<path d="M49.9031 30.386L34.9907 15.4739C34.6428 15.0173 34.0946 14.7209 33.4762 14.7209C32.4241 14.7209 31.5708 15.5739 31.5708 16.6264C31.5708 17.2447 31.8672 17.7929 32.3238 18.1408L49.6364 35.4538C49.7539 33.765 49.8428 32.0755 49.9031 30.386Z" fill="url(#paint6_linear)"/>
<path d="M9.28613 18.9358C9.39027 18.2003 9.46962 17.4606 9.60199 16.7305C10.3523 12.595 13.2801 9.78127 17.4664 9.63708C22.5067 9.46389 27.5623 9.45473 32.6019 9.63631C37.1582 9.80035 40.4579 13.1741 40.6002 17.7319C40.7517 22.5716 40.7517 27.4231 40.6002 32.2628C40.4579 36.8206 37.1594 40.1939 32.6023 40.3584C27.5627 40.5403 22.506 40.5449 17.4668 40.3557C12.9097 40.1844 9.75954 36.8031 9.45474 32.2384C9.42842 31.8436 9.34373 31.4522 9.28613 31.0593C9.28613 27.018 9.28613 22.9767 9.28613 18.9358ZM25.0042 37.6572C27.3106 37.6572 29.6192 37.7262 31.9225 37.6412C35.5339 37.5073 37.7552 35.352 37.8395 31.744C37.944 27.2484 37.944 22.7467 37.8395 18.2507C37.7552 14.6435 35.5324 12.4378 31.9225 12.3612C27.3407 12.2643 22.7539 12.265 18.1721 12.3612C14.5897 12.4363 12.3619 14.5973 12.2646 18.1648C12.1411 22.7173 12.1411 27.2778 12.2646 31.8302C12.3619 35.3973 14.5897 37.5084 18.1725 37.6412C20.4468 37.7258 22.7268 37.6572 25.0042 37.6572Z" fill="url(#paint7_linear)"/>
<path d="M9.28613 18.9358C9.39027 18.2003 9.46962 17.4606 9.60199 16.7305C10.3523 12.595 13.2801 9.78127 17.4664 9.63708C22.5067 9.46389 27.5623 9.45473 32.6019 9.63631C37.1582 9.80035 40.4579 13.1741 40.6002 17.7319C40.7517 22.5716 40.7517 27.4231 40.6002 32.2628C40.4579 36.8206 37.1594 40.1939 32.6023 40.3584C27.5627 40.5403 22.506 40.5449 17.4668 40.3557C12.9097 40.1844 9.75954 36.8031 9.45474 32.2384C9.42842 31.8436 9.34373 31.4522 9.28613 31.0593C9.28613 27.018 9.28613 22.9767 9.28613 18.9358ZM25.0042 37.6572C27.3106 37.6572 29.6192 37.7262 31.9225 37.6412C35.5339 37.5073 37.7552 35.352 37.8395 31.744C37.944 27.2484 37.944 22.7467 37.8395 18.2507C37.7552 14.6435 35.5324 12.4378 31.9225 12.3612C27.3407 12.2643 22.7539 12.265 18.1721 12.3612C14.5897 12.4363 12.3619 14.5973 12.2646 18.1648C12.1411 22.7173 12.1411 27.2778 12.2646 31.8302C12.3619 35.3973 14.5897 37.5084 18.1725 37.6412C20.4468 37.7258 22.7268 37.6572 25.0042 37.6572Z" fill="white"/>
<path d="M25 16.9918C20.5773 16.9918 16.9915 20.5773 16.9915 25C16.9915 29.4232 20.5773 33.0086 25 33.0086C29.4232 33.0086 33.0086 29.4232 33.0086 25C33.0086 20.5773 29.4232 16.9918 25 16.9918ZM25 30.2513C22.0997 30.2513 19.7487 27.9003 19.7487 25C19.7487 22.0997 22.0997 19.7487 25 19.7487C27.9003 19.7487 30.2513 22.0997 30.2513 25C30.2513 27.9003 27.9003 30.2513 25 30.2513Z" fill="white"/>
<path d="M35.3813 16.6264C35.3813 17.6785 34.5284 18.5314 33.4763 18.5314C32.4242 18.5314 31.5708 17.6785 31.5708 16.6264C31.5708 15.5739 32.4242 14.7209 33.4763 14.7209C34.5284 14.7209 35.3813 15.5739 35.3813 16.6264Z" fill="white"/>
<defs>
<radialGradient id="paint0_radial" cx="0" cy="0" r="1" gradientUnits="userSpaceOnUse" gradientTransform="translate(10.2497 43.696) scale(55.1412)">
<stop stop-color="#FAE100"/>
<stop offset="0.0544" stop-color="#FADC04"/>
<stop offset="0.1167" stop-color="#FBCE0E"/>
<stop offset="0.1829" stop-color="#FCB720"/>
<stop offset="0.2514" stop-color="#FE9838"/>
<stop offset="0.3054" stop-color="#FF7950"/>
<stop offset="0.4922" stop-color="#FF1C74"/>
<stop offset="1" stop-color="#6C1CD1"/>
</radialGradient>
<linearGradient id="paint1_linear" x1="19.177" y1="21.7246" x2="-65.5289" y2="-25.9225" gradientUnits="userSpaceOnUse">
<stop stop-color="#A1B5D8" stop-opacity="0"/>
<stop offset="0.3094" stop-color="#90A2BD" stop-opacity="0.309804"/>
<stop offset="0.7554" stop-color="#7C8B9C" stop-opacity="0.756863"/>
<stop offset="1" stop-color="#748290"/>
</linearGradient>
<linearGradient id="paint2_linear" x1="25" y1="44.1373" x2="25" y2="51.9311" gradientUnits="userSpaceOnUse">
<stop stop-color="#FAE100" stop-opacity="0"/>
<stop offset="0.3068" stop-color="#FCA800" stop-opacity="0.305882"/>
<stop offset="0.6275" stop-color="#FE7300" stop-opacity="0.627451"/>
<stop offset="0.8685" stop-color="#FF5200" stop-opacity="0.866667"/>
<stop offset="1" stop-color="#FF4500"/>
</linearGradient>
<linearGradient id="paint3_linear" x1="22.1555" y1="22.0848" x2="9.78133" y2="9.71057" gradientUnits="userSpaceOnUse">
<stop stop-color="#833AB4" stop-opacity="0"/>
<stop offset="1" stop-color="#833AB4"/>
</linearGradient>
<linearGradient id="paint4_linear" x1="34.2675" y1="45.7312" x2="28.0913" y2="16.615" gradientUnits="userSpaceOnUse">
<stop stop-color="#833AB4" stop-opacity="0"/>
<stop offset="1" stop-color="#833AB4"/>
</linearGradient>
<linearGradient id="paint5_linear" x1="36.6177" y1="36.6177" x2="11.8107" y2="11.8106" gradientUnits="userSpaceOnUse">
<stop stop-color="#833AB4" stop-opacity="0"/>
<stop offset="1" stop-color="#833AB4"/>
</linearGradient>
<linearGradient id="paint6_linear" x1="38.4577" y1="21.6077" x2="30.2545" y2="13.4045" gradientUnits="userSpaceOnUse">
<stop stop-color="#833AB4" stop-opacity="0"/>
<stop offset="1" stop-color="#833AB4"/>
</linearGradient>
<linearGradient id="paint7_linear" x1="34.9276" y1="15.1416" x2="14.7014" y2="35.3677" gradientUnits="userSpaceOnUse">
<stop stop-color="#833AB4"/>
<stop offset="0.0922" stop-color="#9C3495"/>
<stop offset="0.2927" stop-color="#DC2546"/>
<stop offset="0.392" stop-color="#FD1D1D"/>
<stop offset="0.5589" stop-color="#FC6831"/>
<stop offset="0.6887" stop-color="#FC9B40"/>
<stop offset="0.7521" stop-color="#FCAF45"/>
<stop offset="0.7806" stop-color="#FDB750"/>
<stop offset="0.8656" stop-color="#FECB6A"/>
<stop offset="0.9415" stop-color="#FFD87A"/>
<stop offset="1" stop-color="#FFDC80"/>
</linearGradient>
</defs>
</svg>
