<svg width="120" height="120" viewBox="0 0 120 120" fill="none" xmlns="http://www.w3.org/2000/svg">
<path d="M89.203 0.0885205C88.0144 0.166646 86.8744 0.328104 86.1071 0.520812C85.8802 0.578104 84.5349 0.973938 83.1301 1.40623C81.7199 1.83331 80.4881 2.19269 80.3854 2.21352C80.2503 2.23435 71.1355 2.49998 70.4871 2.49998C70.3953 2.49998 70.3089 2.59373 70.1143 2.93748C69.9739 3.18227 69.8604 3.39581 69.8604 3.42185C69.8604 3.4479 71.384 3.5104 73.2535 3.56248C79.1913 3.72394 79.348 3.73435 80.4772 4.04165C80.7474 4.11456 81.8496 4.47394 82.9356 4.84373C84.0216 5.21352 85.0536 5.55206 85.2319 5.59373C85.8262 5.73956 86.5772 5.83331 87.5822 5.8854C88.9005 5.95831 118.493 6.68227 118.53 6.6406C118.557 6.61456 119.665 0.286437 119.676 0.114562C119.676 0.067687 116.623 0.052062 104.564 0.0624785C96.2485 0.067687 89.3381 0.0781035 89.203 0.0885205Z" fill="white"/>
<path d="M101.252 7.1354C92.3206 7.32811 84.6268 7.49998 84.1513 7.51561C82.6871 7.56769 81.358 7.80207 78.3161 8.54165C75.4309 9.24477 74.1126 9.5104 72.9131 9.63019C72.6159 9.65623 70.4061 9.73436 67.9964 9.79165C65.5921 9.85415 63.566 9.91144 63.5065 9.92707C63.4201 9.94269 63.339 10.0625 63.1932 10.3958C63.0797 10.6406 62.9986 10.8489 63.0095 10.8541C63.0203 10.8646 64.8627 10.9219 67.1049 10.9844C71.4111 11.1094 71.6596 11.125 73.4264 11.4375C74.0099 11.5416 74.5718 11.7031 76.2359 12.2604C78.5052 13.0208 78.7321 13.0781 79.7749 13.1979C82.1036 13.4635 82.525 13.4739 100.409 13.7552C107.627 13.8646 113.543 13.9687 113.56 13.9844C113.576 14 113.36 14.0104 113.079 14.0104C112.457 14.0104 79.1806 14.7187 77.6947 14.7656C76.2684 14.8073 75.7875 14.875 72.9671 15.4219C69.6983 16.0573 68.5313 16.3125 67.7425 16.5573C66.5538 16.9323 66.7375 16.9166 62.3449 17.0312C60.1351 17.0885 57.9523 17.1458 57.4984 17.1666L56.6772 17.1979L56.353 17.6458C56.1747 17.8906 56.0342 18.0989 56.045 18.1041C56.0558 18.1146 58.0279 18.1823 60.4376 18.25C65.3543 18.3958 65.6515 18.4114 66.2134 18.5156C66.4403 18.5573 67.6722 18.9479 68.9581 19.3906L71.2922 20.1927L72.2377 20.276C74.3503 20.4687 76.7708 20.625 77.7109 20.625C78.0081 20.625 78.2404 20.6354 78.2242 20.651C78.2026 20.6771 75.2148 20.8489 68.7258 21.1979C67.3048 21.2708 66.8023 21.3802 64.4845 22.0937C62.5232 22.6979 60.5889 23.2604 59.7839 23.4687L59.0815 23.6458L54.624 23.7812C52.1711 23.8541 50.0909 23.9219 50.0045 23.9375C49.8586 23.9583 49.81 24.0104 49.5831 24.4583C49.4372 24.7344 49.3291 24.9635 49.3399 24.9739C49.3507 24.9791 51.3012 25.0156 53.6785 25.0469C57.0662 25.0989 58.0928 25.125 58.4331 25.1875C59.0113 25.2916 60.054 25.6354 61.4426 26.1823C63.2256 26.875 63.5714 27 64.3224 27.2031C65.1814 27.4375 66.2458 27.625 67.2778 27.7344C67.8829 27.7916 83.7839 28.4375 84.6916 28.4375C84.8051 28.4375 84.8861 28.4479 84.8753 28.4635C84.8591 28.4739 79.683 28.6406 73.367 28.8229C61.3021 29.1771 61.1995 29.1823 59.8109 29.4583C59.5894 29.5052 58.1306 29.8906 56.5691 30.3229C55.0077 30.7552 53.4516 31.1614 53.1112 31.2291C52.5277 31.3489 52.2413 31.3646 48.1405 31.4844C45.747 31.5573 43.5858 31.6198 43.3372 31.625L42.878 31.6406L42.6781 32.1094L42.4728 32.5781L42.8888 32.5937C43.1157 32.5989 45.2985 32.6614 47.7352 32.7344C52.6952 32.8802 52.5979 32.8698 53.9541 33.3073C54.3431 33.4323 55.1697 33.7448 55.7911 34C57.4174 34.6666 58.1576 34.8958 59.0167 34.9948C59.2598 35.026 63.5984 35.1979 68.6556 35.375C73.7127 35.5521 77.8406 35.7083 77.8298 35.7187C77.819 35.7344 72.5349 35.8646 66.0946 36.0208C54.4565 36.2916 54.3755 36.2969 53.6245 36.4271C52.5385 36.6146 51.3985 36.875 50.2206 37.2083C49.6587 37.3698 48.7024 37.6406 48.0972 37.8125C46.0225 38.401 46.3467 38.3646 41.4084 38.4896C39.0311 38.5469 36.8591 38.5937 36.5727 38.5937H36.054L35.8541 39.0469C35.746 39.2916 35.665 39.5052 35.6812 39.5156C35.692 39.526 37.7884 39.5937 40.3386 39.6614L44.9797 39.7864L46.0765 40.0781C47.5299 40.4635 48.5835 40.7812 49.5723 41.1302C50.869 41.5937 51.1607 41.6719 51.7064 41.7291C52.8249 41.8385 73.2913 43.1666 73.3183 43.1302C73.3345 43.1094 74.0639 42.2864 74.9392 41.3021L76.5277 39.5208L78.7753 39.5469C80.7528 39.5677 81.0932 39.5833 81.6821 39.6823C83.4867 39.9844 85.1562 40.4531 87.5822 41.3281C88.1657 41.5416 89.0194 41.8229 89.484 41.9531L90.3269 42.1979L99.7227 42.5729C107.66 42.8906 108.983 42.9531 108.276 42.9844C107.816 43.0052 94.0117 43.1979 77.6029 43.4114C61.1995 43.6302 47.5353 43.8281 47.2382 43.8594C46.4061 43.9375 46.0387 44.0208 42.7213 44.901C41.0031 45.3594 39.366 45.7656 39.0797 45.8073C38.3341 45.9166 36.7942 45.9791 34.2008 46.0156C32.9689 46.0312 31.3696 46.0573 30.6456 46.0781L29.3327 46.1094L29.0626 46.6198C28.8032 47.1198 28.8032 47.1354 28.9221 47.1562C28.9869 47.1666 31.1211 47.2291 33.6605 47.2916C36.1999 47.3541 38.4367 47.4271 38.6312 47.4531C38.8257 47.4791 39.3012 47.6094 39.6848 47.7396C43.1913 48.9271 45.1688 49.3594 47.8163 49.526C48.2485 49.5521 61.1454 49.7239 76.4791 49.9062C95.3192 50.1302 104.007 50.2448 103.278 50.2708C102.451 50.3021 56.3476 50.8281 43.3048 50.9583C40.3656 50.9844 39.4957 51.0989 37.5236 51.7187C36.9887 51.8906 35.4759 52.2969 34.163 52.625L31.7749 53.2239L27.7064 53.2812C25.4696 53.3125 23.4111 53.3437 23.1301 53.3489L22.6222 53.3594L22.3629 53.8021C22.217 54.0416 22.1197 54.2552 22.1414 54.276C22.163 54.2916 24.2647 54.3594 26.8149 54.4219L31.4507 54.5364L33.5146 55.2083C34.6492 55.5781 35.9298 55.9948 36.362 56.1406C37.3399 56.4635 38.3233 56.6666 39.0635 56.6979C39.3768 56.7083 41.1382 56.7448 42.9806 56.7708C47.2868 56.8385 108.94 57.4479 108.967 57.4271C108.978 57.4166 109.264 55.8177 109.599 53.8802C110.005 51.5729 110.242 50.3333 110.291 50.2916C110.388 50.2187 111.577 43.8854 112.36 39.2708C112.749 36.9687 112.965 35.8385 113.014 35.7969C113.068 35.7604 113.29 34.5729 113.706 32.1614C114.084 29.9375 114.343 28.5625 114.386 28.5416C114.478 28.4844 115.678 22.1094 116.439 17.6302C116.855 15.1979 117.066 14.0677 117.12 14.026C117.174 13.9896 117.39 12.8437 117.812 10.4062C118.152 8.45311 118.433 6.83332 118.433 6.80727C118.433 6.7604 119.951 6.72915 101.252 7.1354ZM93.2013 20.3646L92.8717 20.7812H92.3746C92.0991 20.7812 90.0081 20.7448 87.7173 20.7031C85.4318 20.6614 83.195 20.625 82.7465 20.6198C82.3035 20.6146 82.0117 20.5989 82.0982 20.5833C82.2548 20.5625 92.8123 19.9687 93.2985 19.9531L93.5309 19.9479L93.2013 20.3646ZM102.089 21.0416C107.082 21.125 111.469 21.1979 111.836 21.1979C112.204 21.1979 112.495 21.2083 112.484 21.2239C112.468 21.2344 109.297 21.3177 105.434 21.401C97.6479 21.5781 96.4323 21.6302 92.4773 21.9583C92.1099 21.9896 92.0558 21.9844 92.0991 21.9166C92.2395 21.6979 92.9095 20.8906 92.9581 20.8854C92.9906 20.8854 97.0968 20.9583 102.089 21.0416ZM89.5381 25.526C89.6947 25.5833 90.3593 25.8854 91.0131 26.1979C92.2449 26.7812 93.2607 27.1927 93.6929 27.2864C94.7033 27.5052 96.1513 27.5989 104.926 28.0469C109.189 28.2604 112.717 28.4479 112.76 28.4583C112.803 28.4687 112.733 28.4791 112.598 28.4844C112.463 28.4896 108.124 28.6302 102.954 28.8021C92.3044 29.1562 93.4498 29.0729 90.4998 29.7083C88.4413 30.151 86.9987 30.4166 85.8262 30.5677C84.6754 30.7135 84.3836 30.7396 84.4052 30.6823C84.4106 30.6614 84.9347 30.1666 85.5561 29.5885C86.3989 28.8125 86.7231 28.5416 86.8258 28.5416C86.9392 28.5364 87.1175 28.3125 88.0685 26.9791C88.6736 26.1198 89.1923 25.4166 89.2139 25.4166C89.2355 25.4166 89.3814 25.4635 89.5381 25.526ZM84.3404 32.2135C84.7564 32.2291 85.1616 32.276 85.394 32.3385C85.6047 32.3906 86.7555 32.8385 87.9604 33.3333C89.1653 33.8229 90.3161 34.2864 90.516 34.3541C91.0563 34.5312 91.9964 34.7239 92.769 34.8125C93.1418 34.8541 97.421 35.0677 102.278 35.2864C107.136 35.5052 111.155 35.7031 111.209 35.7239C111.263 35.7396 107.265 35.9166 102.321 36.1094C97.3778 36.3073 92.9095 36.4896 92.3908 36.5156C90.905 36.5937 90.208 36.7135 87.7983 37.3177C86.5934 37.6198 85.3832 37.9166 85.1022 37.9687C83.8055 38.2344 81.9955 38.3437 79.4615 38.3229L77.6407 38.3073L78.8078 37.0573C79.6938 36.1146 80.0126 35.8021 80.1207 35.7916C80.2395 35.776 80.4935 35.4635 81.6281 33.9583L82.9951 32.1406L83.33 32.1614C83.5137 32.1771 83.9676 32.1979 84.3404 32.2135Z" fill="white"/>
<path d="M46.9518 58.026C36.3674 58.5572 33.547 58.7135 32.9851 58.7968C32.1098 58.9322 31.0941 59.1822 29.846 59.5624C29.3111 59.7291 28.4304 59.9999 27.8793 60.1666C27.3282 60.3385 26.5016 60.5729 26.0423 60.6874L25.2048 60.901L20.4556 60.9687C17.8406 61.0052 15.6848 61.0572 15.6632 61.0781C15.6416 61.0989 15.5389 61.3124 15.4363 61.5416L15.2472 61.9635L16.1441 61.9999C16.6411 62.0156 18.7753 62.0781 20.8825 62.1354C23.4867 62.2083 24.8374 62.2656 25.0968 62.3124C25.3075 62.3541 26.0099 62.5729 26.6636 62.802C29.2733 63.7187 30.9212 64.151 32.5205 64.3489C33.0121 64.4114 50.7663 65.2083 51.6308 65.2083C51.7388 65.2083 51.8199 65.2187 51.8091 65.2343C51.7929 65.2447 46.5196 65.4114 40.0846 65.5937C33.6551 65.7812 28.0468 65.9479 27.6308 65.9635C26.9014 65.9895 26.0909 66.0885 25.7451 66.1927C23.5894 66.8333 18.9806 68.0937 18.5862 68.151C18.2296 68.2031 16.733 68.2604 13.7505 68.3333C11.3732 68.3906 9.29309 68.4374 9.1256 68.4374H8.82843L8.62852 68.9166C8.52046 69.177 8.43942 69.4062 8.45563 69.4166C8.46643 69.427 10.4439 69.4687 12.8428 69.5052L17.2084 69.5729L17.8298 69.7343C18.5916 69.9374 19.5533 70.2499 20.9527 70.7499C22.8654 71.4374 23.8055 71.7031 24.8536 71.8489C25.2535 71.9062 28.3116 72.0312 35.1193 72.2656C40.452 72.4531 44.9257 72.6041 45.0554 72.6041C45.185 72.6041 45.2823 72.6145 45.2715 72.6301C45.2553 72.6406 39.7604 72.8541 33.0608 73.0937C26.3665 73.3385 20.6772 73.552 20.4232 73.5676C19.2832 73.651 17.511 74.0208 15.5605 74.5833C13.8316 75.0833 12.443 75.4479 11.9135 75.5416C11.5353 75.6041 10.4439 75.6458 7.05086 75.7291C4.64653 75.7864 2.49615 75.8333 2.28003 75.8333H1.88562L1.70732 76.2083C1.61006 76.4166 1.51281 76.6354 1.4912 76.6979C1.45878 76.802 1.47499 76.802 5.03555 76.8958C10.5844 77.0364 11.2003 77.0624 11.6974 77.1822C11.9351 77.2395 12.6159 77.4531 13.2102 77.6562C15.1283 78.3124 16.8897 78.7968 18.3701 79.0729L18.9914 79.1874L30.0999 79.2031L41.203 79.2187L44.1152 75.9635C45.7199 74.1718 47.0545 72.7083 47.0923 72.7083C47.1247 72.7083 48.5835 71.0416 50.3287 69.0104C52.8465 66.0833 53.5326 65.3124 53.6299 65.3124C53.7271 65.3124 54.4944 64.4739 57.2012 61.4166C59.0977 59.276 60.6808 57.4843 60.724 57.4322C60.7888 57.3489 60.7726 57.3437 60.5079 57.3489C60.3458 57.3541 54.2458 57.6562 46.9518 58.026Z" fill="white"/>
<path d="M97.5776 58.1302C91.6776 58.3542 86.5448 58.5625 86.172 58.5885C85.7938 58.6198 85.2372 58.6927 84.9347 58.75C84.3782 58.8646 79.3642 60.2448 78.6132 60.4948C78.3917 60.5677 78.0621 60.651 77.8838 60.6771C77.7055 60.7031 75.6416 60.7708 73.2913 60.8333C70.9464 60.8906 68.823 60.9531 68.5745 60.9687L68.1261 61L67.9424 61.3594C67.8397 61.5573 67.7533 61.7344 67.7533 61.7604C67.7533 61.7812 69.3903 61.8437 71.3894 61.8958C77.1976 62.0417 77.3435 62.0521 78.0999 62.2344C78.878 62.4219 79.6992 62.6927 80.9473 63.1719C82.6006 63.8021 83.7784 64.125 84.6915 64.1927C85.5722 64.2552 107.438 64.9427 107.47 64.9062C107.503 64.875 108.978 57.8542 108.978 57.7448C108.978 57.6927 109.453 57.6771 97.5776 58.1302Z" fill="white"/>
<path d="M95.8217 65.5729C89.8514 65.7656 84.7564 65.9531 84.5025 65.9844C83.1247 66.1667 81.4012 66.5625 79.0725 67.2292C77.3489 67.724 76.398 67.9792 75.9117 68.0677C75.7496 68.0937 73.5236 68.1719 70.968 68.2344C67.7479 68.3125 66.3053 68.3646 66.262 68.4062C66.208 68.4531 65.8622 69.2239 65.8622 69.2864C65.8622 69.2969 67.4507 69.3229 69.3904 69.3437C71.3246 69.3646 73.4966 69.401 74.2098 69.4219L75.5065 69.4635L76.0738 69.6562C76.3872 69.7656 77.0085 69.9739 77.4516 70.125C77.9 70.276 78.5052 70.5 78.8023 70.6198C79.9748 71.1041 81.3255 71.4791 82.2332 71.5625C82.5466 71.5937 87.8847 71.7708 94.0927 71.9531C100.306 72.1406 105.579 72.2968 105.817 72.302L106.244 72.3177L106.503 70.8593C106.649 70.0573 106.93 68.4583 107.135 67.3021L107.503 65.2084L107.092 65.2136C106.865 65.2188 101.797 65.3802 95.8217 65.5729Z" fill="white"/>
<path d="M94.2278 73.0209C88.3008 73.2448 83.1571 73.4531 82.8005 73.4844C81.3579 73.6146 79.7641 74 76.7762 74.9323C75.4525 75.3438 74.7231 75.5417 74.4259 75.5781C74.0477 75.6198 66.0405 75.8333 64.8573 75.8333H64.4196L64.1441 76.2344C63.9928 76.4583 63.8793 76.6458 63.8901 76.6562C63.9009 76.6667 65.9973 76.7292 68.5475 76.7969C72.5619 76.9062 73.2535 76.9375 73.7235 77.026C74.0207 77.0781 75.0797 77.3854 76.0738 77.6979C79.8073 78.8854 79.8991 78.9062 81.4768 79.0989C82.2116 79.1875 82.9788 79.1927 93.6335 79.1927H105.007L105.558 75.9896C105.86 74.2292 106.109 72.7448 106.114 72.6927C106.114 72.6146 106.055 72.6042 105.563 72.6094C105.255 72.6146 100.155 72.7969 94.2278 73.0209Z" fill="white"/>
<path d="M9.14182 89.6458C9.08239 89.7969 7.02386 95.0781 4.56551 101.38C2.10715 107.682 0.0810396 112.88 0.0702337 112.932C0.0432188 113.016 0.248532 113.021 3.90094 113.021H7.75866L8.35299 111.078L8.94191 109.141L13.2643 109.125L17.5867 109.115L18.1864 111.052L18.7807 112.995L22.7411 113.01C25.9018 113.021 26.6961 113.01 26.6799 112.958C26.6637 112.922 24.5943 107.599 22.0711 101.13L17.4894 89.375H13.3669H9.24448L9.14182 89.6458ZM14.6366 99.7396C15.3552 101.99 15.955 103.87 15.9712 103.917C15.9982 104.005 15.8469 104.01 13.2913 104.01C11.1409 104.01 10.5844 103.995 10.606 103.943C10.6168 103.911 11.222 102.01 11.946 99.7291C12.67 97.4427 13.2751 95.5937 13.2967 95.6146C13.3183 95.6354 13.9235 97.4896 14.6366 99.7396Z" fill="white"/>
<path d="M28.7438 101.198V113.021H31.9045H35.0653V111.755L35.0707 110.495L35.4273 110.885C36.8375 112.422 37.864 113.026 39.5443 113.302C40.1927 113.406 41.4354 113.412 42.0513 113.307C44.0828 112.969 45.7308 111.854 46.8005 110.104C47.5029 108.964 47.9784 107.516 48.1675 105.958C48.2756 105.073 48.2756 103.297 48.1675 102.448C47.8325 99.8125 46.7141 97.8854 44.7852 96.625C44.1423 96.2083 43.1643 95.8229 42.2512 95.6406C41.5489 95.5 39.9334 95.5156 39.1824 95.6667C37.9127 95.9323 36.8375 96.4636 35.9298 97.2761L35.6056 97.5625V93.4688V89.375H32.1747H28.7438V101.198ZM39.3066 100.495C40.2413 100.729 40.9923 101.542 41.2787 102.635C41.43 103.208 41.511 104.141 41.4678 104.844C41.3435 106.839 40.8303 107.839 39.6578 108.38C39.2904 108.547 39.1986 108.568 38.7069 108.583C37.8046 108.62 37.2265 108.401 36.6051 107.792C35.8703 107.078 35.5516 106.052 35.5516 104.427C35.5516 102.969 35.8973 101.917 36.5889 101.25C37.3129 100.547 38.3557 100.26 39.3066 100.495Z" fill="white"/>
<path d="M51.8145 91.6146V93.8542H55.2184H58.6222L58.6114 91.625L58.5952 89.401L55.2075 89.3854L51.8145 89.375V91.6146Z" fill="white"/>
<path d="M63.2148 101.198V113.021H66.6186H70.0225V101.198V89.375H66.6186H63.2148V101.198Z" fill="white"/>
<path d="M74.615 91.6146V93.8542H78.0189H81.4228V91.6146V89.375H78.0189H74.615V91.6146Z" fill="white"/>
<path d="M90.5268 91.0937L87.1769 92.7552L87.1607 94.3177L87.1499 95.8854H85.9072H84.6646V98.2812V100.677H85.9018H87.1391L87.1661 104.516C87.1878 107.615 87.2094 108.479 87.2742 108.984C87.4903 110.552 87.8199 111.323 88.6087 112.089C89.2949 112.755 89.9054 113.047 91.0995 113.266C91.8829 113.406 94.7573 113.396 95.8487 113.245C97.0644 113.073 97.9072 112.911 97.9343 112.839C97.9667 112.766 97.4966 108.443 97.4534 108.406C97.4426 108.391 97.1508 108.453 96.8158 108.536C95.2922 108.927 94.5196 108.818 94.19 108.177C93.9847 107.786 93.9523 107.109 93.9685 103.776L93.9847 100.703L95.8649 100.687L97.7398 100.677L97.7289 98.2917L97.7127 95.9114L95.8379 95.8958L93.9577 95.8854V92.6562C93.9577 90.8802 93.9415 89.4271 93.9199 89.4323C93.8928 89.4323 92.3692 90.1823 90.5268 91.0937Z" fill="white"/>
<path d="M51.8145 104.453V113.021H55.2184H58.6222L58.6114 104.464L58.5952 95.9115L55.2075 95.8958L51.8145 95.8854V104.453Z" fill="white"/>
<path d="M74.615 104.453V113.021H78.0189H81.4228V104.453V95.8854H78.0189H74.615V104.453Z" fill="white"/>
<path d="M99.0473 95.974C99.0635 96.026 100.733 99.8698 102.759 104.521C104.78 109.167 106.439 113.01 106.439 113.052C106.439 113.198 106.017 114.01 105.763 114.349C105.32 114.948 104.812 115.25 103.996 115.401C103.224 115.542 101.603 115.427 100.49 115.156C100.247 115.094 100.036 115.062 100.02 115.078C99.9874 115.104 100.484 119.536 100.522 119.573C100.549 119.599 102.602 119.828 103.407 119.896C104.434 119.979 106.023 119.964 106.768 119.87C108.465 119.656 109.74 119.12 110.637 118.245C111.258 117.63 111.998 116.401 112.587 115C112.841 114.385 119.946 95.9583 119.946 95.9115C119.946 95.8958 118.444 95.8854 116.607 95.8854H113.262L112.112 99.75C111.48 101.88 110.712 104.453 110.404 105.469L109.853 107.318L109.713 106.875C109.637 106.63 108.81 104.062 107.881 101.172L106.185 95.9115L102.608 95.8958C99.2094 95.8854 99.0256 95.8906 99.0473 95.974Z" fill="white"/>
</svg>
