<svg width="512" height="512" viewBox="0 0 512 512" fill="none" xmlns="http://www.w3.org/2000/svg">
<path d="M344.75 9V113.75C344.75 125.348 354.152 134.75 365.75 134.75H439V255.5V491C439 497.075 434.075 502 428 502H83C76.9249 502 72 497.075 72 491V20C72 13.9249 76.9249 9 83 9H255.5H344.75ZM354.75 113.75V19.0079L434.004 124.75H365.75C359.675 124.75 354.75 119.825 354.75 113.75Z" stroke="#f2f2f2" stroke-width="10"/>
<path fill-rule="evenodd" clip-rule="evenodd" d="M471 204H41V385H471V204ZM133.216 274H144.16V229.072H133.216V256.912L114.912 229.072H103.968V274H114.912V246.288L133.216 274ZM181.341 237.84V229.072H152.093V274H163.037V255.824H176.733V247.312H163.037V237.84H181.341ZM188.117 239.632C186.197 243.088 185.237 247.035 185.237 251.472C185.237 255.909 186.197 259.856 188.117 263.312C190.037 266.768 192.704 269.477 196.117 271.44C199.573 273.36 203.477 274.32 207.829 274.32C213.162 274.32 217.728 272.933 221.525 270.16C225.322 267.344 227.861 263.504 229.141 258.64H217.109C216.213 260.517 214.933 261.947 213.269 262.928C211.648 263.909 209.792 264.4 207.701 264.4C204.33 264.4 201.6 263.227 199.509 260.88C197.418 258.533 196.373 255.397 196.373 251.472C196.373 247.547 197.418 244.411 199.509 242.064C201.6 239.717 204.33 238.544 207.701 238.544C209.792 238.544 211.648 239.035 213.269 240.016C214.933 240.997 216.213 242.427 217.109 244.304H229.141C227.861 239.44 225.322 235.6 221.525 232.784C217.728 229.968 213.162 228.56 207.829 228.56C203.477 228.56 199.573 229.541 196.117 231.504C192.704 233.424 190.037 236.133 188.117 239.632ZM263.363 256.08V246.992H235.203V256.08H263.363ZM306.44 258.768C306.568 257.659 306.632 256.592 306.632 255.568C306.632 251.984 305.864 248.848 304.328 246.16C302.835 243.472 300.744 241.403 298.056 239.952C295.368 238.501 292.296 237.776 288.84 237.776C285.299 237.776 282.163 238.523 279.432 240.016C276.701 241.509 274.568 243.643 273.032 246.416C271.539 249.189 270.792 252.432 270.792 256.144C270.792 259.856 271.56 263.099 273.096 265.872C274.632 268.645 276.765 270.779 279.496 272.272C282.227 273.765 285.341 274.512 288.84 274.512C291.741 274.512 294.365 273.979 296.712 272.912C299.059 271.845 301 270.373 302.536 268.496C304.115 266.619 305.203 264.507 305.8 262.16H294.152C293.085 264.464 291.187 265.616 288.456 265.616C286.621 265.616 285.064 265.04 283.784 263.888C282.547 262.693 281.843 260.987 281.672 258.768H306.44ZM293.512 248.208C294.792 249.317 295.432 250.811 295.432 252.688H281.736C282.035 250.725 282.803 249.211 284.04 248.144C285.32 247.077 286.877 246.544 288.712 246.544C290.632 246.544 292.232 247.099 293.512 248.208ZM111.392 368.848C113.995 369.915 116.939 370.448 120.224 370.448C123.595 370.448 126.517 369.829 128.992 368.592C131.467 367.355 133.344 365.691 134.624 363.6C135.947 361.509 136.608 359.184 136.608 356.624C136.608 353.936 135.947 351.739 134.624 350.032C133.301 348.325 131.723 347.024 129.888 346.128C128.096 345.232 125.749 344.293 122.848 343.312C119.947 342.373 117.813 341.499 116.448 340.688C115.083 339.877 114.4 338.747 114.4 337.296C114.4 335.973 114.805 334.971 115.616 334.288C116.427 333.563 117.493 333.2 118.816 333.2C120.352 333.2 121.611 333.627 122.592 334.48C123.573 335.291 124.107 336.421 124.192 337.872H136.032C135.819 333.648 134.197 330.363 131.168 328.016C128.139 325.627 124.149 324.432 119.2 324.432C114.336 324.432 110.389 325.627 107.36 328.016C104.331 330.363 102.816 333.627 102.816 337.808C102.816 340.624 103.477 342.907 104.8 344.656C106.123 346.405 107.701 347.728 109.536 348.624C111.371 349.52 113.739 350.416 116.64 351.312C118.645 351.909 120.181 352.443 121.248 352.912C122.357 353.381 123.275 353.979 124 354.704C124.768 355.429 125.152 356.347 125.152 357.456C125.152 358.779 124.683 359.824 123.744 360.592C122.805 361.317 121.525 361.68 119.904 361.68C118.325 361.68 117.045 361.253 116.064 360.4C115.083 359.504 114.507 358.224 114.336 356.56H102.688C102.773 359.504 103.584 362.021 105.12 364.112C106.699 366.203 108.789 367.781 111.392 368.848ZM151.855 370L154.543 362.064H171.311L173.999 370H185.583L169.327 325.072H156.655L140.399 370H151.855ZM162.927 337.168L168.495 353.616H157.423L162.927 337.168ZM201.475 370V325.072H190.531V370H201.475ZM188.035 322.512L203.458 316.048V307.536L188.035 314.96V322.512ZM238.654 327.888C235.112 326.011 230.973 325.072 226.238 325.072H209.406V370H226.238C230.931 370 235.048 369.061 238.59 367.184C242.174 365.307 244.926 362.661 246.846 359.248C248.808 355.835 249.79 351.931 249.79 347.536C249.79 343.099 248.808 339.195 246.846 335.824C244.926 332.411 242.195 329.765 238.654 327.888ZM235.198 357.136C232.893 359.397 229.672 360.528 225.534 360.528H220.35V334.416H225.534C229.672 334.416 232.893 335.568 235.198 337.872C237.501 340.176 238.654 343.397 238.654 347.536C238.654 351.675 237.501 354.875 235.198 357.136ZM264.417 370L267.105 362.064H283.874L286.561 370H298.146L281.889 325.072H269.217L252.962 370H264.417ZM275.49 337.168L281.057 353.616H269.986L275.49 337.168Z" fill="#f2f2f2"/>
</svg>
