<svg width="430" height="503" viewBox="0 0 430 503" fill="none" xmlns="http://www.w3.org/2000/svg">
<path d="M303.75 5V109.75C303.75 121.348 313.152 130.75 324.75 130.75H398V251.5V487C398 493.075 393.075 498 387 498H42C35.9249 498 31 493.075 31 487V16C31 9.92487 35.9249 5 42 5H214.5H303.75ZM313.75 109.75V15.0079L393.004 120.75H324.75C318.675 120.75 313.75 115.825 313.75 109.75Z" stroke="#F2F2F2" stroke-width="10"/>
<path fill-rule="evenodd" clip-rule="evenodd" d="M430 191H0V372H430V191ZM76.216 268H87.16V223.072H76.216V250.912L57.912 223.072H46.968V268H57.912V240.288L76.216 268ZM124.341 231.84V223.072H95.093V268H106.037V249.824H119.733V241.312H106.037V231.84H124.341ZM131.117 233.632C129.197 237.088 128.237 241.035 128.237 245.472C128.237 249.909 129.197 253.856 131.117 257.312C133.037 260.768 135.704 263.477 139.117 265.44C142.573 267.36 146.477 268.32 150.829 268.32C156.162 268.32 160.728 266.933 164.525 264.16C168.322 261.344 170.861 257.504 172.141 252.64H160.109C159.213 254.517 157.933 255.947 156.269 256.928C154.648 257.909 152.792 258.4 150.701 258.4C147.33 258.4 144.6 257.227 142.509 254.88C140.418 252.533 139.373 249.397 139.373 245.472C139.373 241.547 140.418 238.411 142.509 236.064C144.6 233.717 147.33 232.544 150.701 232.544C152.792 232.544 154.648 233.035 156.269 234.016C157.933 234.997 159.213 236.427 160.109 238.304H172.141C170.861 233.44 168.322 229.6 164.525 226.784C160.728 223.968 156.162 222.56 150.829 222.56C146.477 222.56 142.573 223.541 139.117 225.504C135.704 227.424 133.037 230.133 131.117 233.632ZM206.363 250.08V240.992H178.203V250.08H206.363ZM249.44 252.768C249.568 251.659 249.632 250.592 249.632 249.568C249.632 245.984 248.864 242.848 247.328 240.16C245.835 237.472 243.744 235.403 241.056 233.952C238.368 232.501 235.296 231.776 231.84 231.776C228.299 231.776 225.163 232.523 222.432 234.016C219.701 235.509 217.568 237.643 216.032 240.416C214.539 243.189 213.792 246.432 213.792 250.144C213.792 253.856 214.56 257.099 216.096 259.872C217.632 262.645 219.765 264.779 222.496 266.272C225.227 267.765 228.341 268.512 231.84 268.512C234.741 268.512 237.365 267.979 239.712 266.912C242.059 265.845 244 264.373 245.536 262.496C247.115 260.619 248.203 258.507 248.8 256.16H237.152C236.085 258.464 234.187 259.616 231.456 259.616C229.621 259.616 228.064 259.04 226.784 257.888C225.547 256.693 224.843 254.987 224.672 252.768H249.44ZM236.512 242.208C237.792 243.317 238.432 244.811 238.432 246.688H224.736C225.035 244.725 225.803 243.211 227.04 242.144C228.32 241.077 229.877 240.544 231.712 240.544C233.632 240.544 235.232 241.099 236.512 242.208ZM54.392 336.848C56.9947 337.915 59.9387 338.448 63.224 338.448C66.5947 338.448 69.5173 337.829 71.992 336.592C74.4667 335.355 76.344 333.691 77.624 331.6C78.9467 329.509 79.608 327.184 79.608 324.624C79.608 321.936 78.9467 319.739 77.624 318.032C76.3013 316.325 74.7227 315.024 72.888 314.128C71.096 313.232 68.7493 312.293 65.848 311.312C62.9467 310.373 60.8133 309.499 59.448 308.688C58.0827 307.877 57.4 306.747 57.4 305.296C57.4 303.973 57.8053 302.971 58.616 302.288C59.4267 301.563 60.4933 301.2 61.816 301.2C63.352 301.2 64.6107 301.627 65.592 302.48C66.5733 303.291 67.1067 304.421 67.192 305.872H79.032C78.8187 301.648 77.1973 298.363 74.168 296.016C71.1387 293.627 67.1493 292.432 62.2 292.432C57.336 292.432 53.3893 293.627 50.36 296.016C47.3307 298.363 45.816 301.627 45.816 305.808C45.816 308.624 46.4773 310.907 47.8 312.656C49.1227 314.405 50.7013 315.728 52.536 316.624C54.3707 317.52 56.7387 318.416 59.64 319.312C61.6453 319.909 63.1813 320.443 64.248 320.912C65.3573 321.381 66.2747 321.979 67 322.704C67.768 323.429 68.152 324.347 68.152 325.456C68.152 326.779 67.6827 327.824 66.744 328.592C65.8053 329.317 64.5253 329.68 62.904 329.68C61.3253 329.68 60.0453 329.253 59.064 328.4C58.0827 327.504 57.5067 326.224 57.336 324.56H45.688C45.7733 327.504 46.584 330.021 48.12 332.112C49.6987 334.203 51.7893 335.781 54.392 336.848ZM94.855 338L97.543 330.064H114.311L116.999 338H128.583L112.327 293.072H99.655L83.399 338H94.855ZM105.927 305.168L111.495 321.616H100.423L105.927 305.168ZM144.475 338V293.072H133.531V338H144.475ZM131.035 290.512L146.458 284.048V275.536L131.035 282.96V290.512ZM181.654 295.888C178.112 294.011 173.973 293.072 169.238 293.072H152.406V338H169.238C173.931 338 178.048 337.061 181.59 335.184C185.174 333.307 187.926 330.661 189.846 327.248C191.808 323.835 192.79 319.931 192.79 315.536C192.79 311.099 191.808 307.195 189.846 303.824C187.926 300.411 185.195 297.765 181.654 295.888ZM178.198 325.136C175.893 327.397 172.672 328.528 168.534 328.528H163.35V302.416H168.534C172.672 302.416 175.893 303.568 178.198 305.872C180.501 308.176 181.654 311.397 181.654 315.536C181.654 319.675 180.501 322.875 178.198 325.136ZM207.417 338L210.105 330.064H226.874L229.561 338H241.146L224.889 293.072H212.217L195.962 338H207.417ZM218.49 305.168L224.057 321.616H212.986L218.49 305.168Z" fill="#F2F2F2"/>
</svg>
