<svg width="430" height="503" viewBox="0 0 430 503" fill="none" xmlns="http://www.w3.org/2000/svg">
<path d="M303.75 5V109.75C303.75 121.348 313.152 130.75 324.75 130.75H398V251.5V487C398 493.075 393.075 498 387 498H42C35.9249 498 31 493.075 31 487V16C31 9.92487 35.9249 5 42 5H214.5H303.75ZM313.75 109.75V15.0079L393.004 120.75H324.75C318.675 120.75 313.75 115.825 313.75 109.75Z" stroke="#F2F2F2" stroke-width="10"/>
<path fill-rule="evenodd" clip-rule="evenodd" d="M430 191H0V372H430V191ZM76.216 268H87.16V223.072H76.216V250.912L57.912 223.072H46.968V268H57.912V240.288L76.216 268ZM124.341 231.84V223.072H95.093V268H106.037V249.824H119.733V241.312H106.037V231.84H124.341ZM157.613 250.08V240.992H129.453V250.08H157.613ZM200.69 252.768C200.818 251.659 200.882 250.592 200.882 249.568C200.882 245.984 200.114 242.848 198.578 240.16C197.085 237.472 194.994 235.403 192.306 233.952C189.618 232.501 186.546 231.776 183.09 231.776C179.549 231.776 176.413 232.523 173.682 234.016C170.951 235.509 168.818 237.643 167.282 240.416C165.789 243.189 165.042 246.432 165.042 250.144C165.042 253.856 165.81 257.099 167.346 259.872C168.882 262.645 171.015 264.779 173.746 266.272C176.477 267.765 179.591 268.512 183.09 268.512C185.991 268.512 188.615 267.979 190.962 266.912C193.309 265.845 195.25 264.373 196.786 262.496C198.365 260.619 199.453 258.507 200.05 256.16H188.402C187.335 258.464 185.437 259.616 182.706 259.616C180.871 259.616 179.314 259.04 178.034 257.888C176.797 256.693 176.093 254.987 175.922 252.768H200.69ZM187.762 242.208C189.042 243.317 189.682 244.811 189.682 246.688H175.986C176.285 244.725 177.053 243.211 178.29 242.144C179.57 241.077 181.127 240.544 182.962 240.544C184.882 240.544 186.482 241.099 187.762 242.208ZM57.912 310.928V301.84H74.488V293.072H46.968V338H74.488V329.232H57.912V319.376H72.568V310.928H57.912ZM110.841 338H121.785V293.072H110.841V320.912L92.537 293.072H81.593V338H92.537V310.288L110.841 338ZM162.038 301.84V293.072H127.286V301.84H139.19V338H150.134V301.84H162.038ZM181.098 321.04L190.443 338H202.794L192.426 320.208C195.712 319.227 198.186 317.563 199.85 315.216C201.557 312.869 202.411 310.203 202.411 307.216C202.411 304.571 201.792 302.181 200.555 300.048C199.317 297.872 197.44 296.165 194.923 294.928C192.448 293.691 189.44 293.072 185.898 293.072H167.531V338H178.475V321.04H181.098ZM185.258 313.296H178.475V302.16H185.258C187.264 302.16 188.757 302.651 189.738 303.632C190.762 304.613 191.275 305.957 191.275 307.664C191.275 309.456 190.762 310.843 189.738 311.824C188.757 312.805 187.264 313.296 185.258 313.296ZM217.792 338L220.48 330.064H237.249L239.936 338H251.521L235.264 293.072H222.592L206.337 338H217.792ZM228.865 305.168L234.432 321.616H223.361L228.865 305.168ZM285.716 295.888C282.175 294.011 278.036 293.072 273.3 293.072H256.468V338H273.3C277.993 338 282.111 337.061 285.652 335.184C289.236 333.307 291.988 330.661 293.908 327.248C295.871 323.835 296.852 319.931 296.852 315.536C296.852 311.099 295.871 307.195 293.908 303.824C291.988 300.411 289.257 297.765 285.716 295.888ZM282.26 325.136C279.956 327.397 276.735 328.528 272.596 328.528H267.412V302.416H272.596C276.735 302.416 279.956 303.568 282.26 305.872C284.564 308.176 285.716 311.397 285.716 315.536C285.716 319.675 284.564 322.875 282.26 325.136ZM311.48 338L314.168 330.064H330.936L333.624 338H345.208L328.952 293.072H316.28L300.024 338H311.48ZM322.552 305.168L328.12 321.616H317.048L322.552 305.168Z" fill="#F2F2F2"/>
</svg>
