<svg width="512" height="512" viewBox="0 0 512 512" fill="none" xmlns="http://www.w3.org/2000/svg">
<path d="M344.75 9V113.75C344.75 125.348 354.152 134.75 365.75 134.75H439V255.5V491C439 497.075 434.075 502 428 502H83C76.9249 502 72 497.075 72 491V20C72 13.9249 76.9249 9 83 9H255.5H344.75ZM354.75 113.75V19.0079L434.004 124.75H365.75C359.675 124.75 354.75 119.825 354.75 113.75Z" stroke="#f2f2f2" stroke-width="10"/>
<path fill-rule="evenodd" clip-rule="evenodd" d="M471 204H41V385H471V204ZM133.216 274H144.16V229.072H133.216V256.912L114.912 229.072H103.968V274H114.912V246.288L133.216 274ZM181.341 237.84V229.072H152.093V274H163.037V255.824H176.733V247.312H163.037V237.84H181.341ZM214.613 256.08V246.992H186.453V256.08H214.613ZM257.69 258.768C257.818 257.659 257.882 256.592 257.882 255.568C257.882 251.984 257.114 248.848 255.578 246.16C254.085 243.472 251.994 241.403 249.306 239.952C246.618 238.501 243.546 237.776 240.09 237.776C236.549 237.776 233.413 238.523 230.682 240.016C227.951 241.509 225.818 243.643 224.282 246.416C222.789 249.189 222.042 252.432 222.042 256.144C222.042 259.856 222.81 263.099 224.346 265.872C225.882 268.645 228.015 270.779 230.746 272.272C233.477 273.765 236.591 274.512 240.09 274.512C242.991 274.512 245.615 273.979 247.962 272.912C250.309 271.845 252.25 270.373 253.786 268.496C255.365 266.619 256.453 264.507 257.05 262.16H245.402C244.335 264.464 242.437 265.616 239.706 265.616C237.871 265.616 236.314 265.04 235.034 263.888C233.797 262.693 233.093 260.987 232.922 258.768H257.69ZM244.762 248.208C246.042 249.317 246.682 250.811 246.682 252.688H232.986C233.285 250.725 234.053 249.211 235.29 248.144C236.57 247.077 238.127 246.544 239.962 246.544C241.882 246.544 243.482 247.099 244.762 248.208ZM114.912 342.928V333.84H131.488V325.072H103.968V370H131.488V361.232H114.912V351.376H129.568V342.928H114.912ZM167.841 370H178.785V325.072H167.841V352.912L149.537 325.072H138.593V370H149.537V342.288L167.841 370ZM219.038 333.84V325.072H184.286V333.84H196.19V370H207.134V333.84H219.038ZM238.098 353.04L247.443 370H259.794L249.426 352.208C252.712 351.227 255.186 349.563 256.85 347.216C258.557 344.869 259.411 342.203 259.411 339.216C259.411 336.571 258.792 334.181 257.555 332.048C256.317 329.872 254.44 328.165 251.923 326.928C249.448 325.691 246.44 325.072 242.898 325.072H224.531V370H235.475V353.04H238.098ZM242.258 345.296H235.475V334.16H242.258C244.264 334.16 245.757 334.651 246.738 335.632C247.762 336.613 248.275 337.957 248.275 339.664C248.275 341.456 247.762 342.843 246.738 343.824C245.757 344.805 244.264 345.296 242.258 345.296ZM274.792 370L277.48 362.064H294.249L296.936 370H308.521L292.264 325.072H279.592L263.337 370H274.792ZM285.865 337.168L291.432 353.616H280.361L285.865 337.168ZM342.716 327.888C339.175 326.011 335.036 325.072 330.3 325.072H313.468V370H330.3C334.993 370 339.111 369.061 342.652 367.184C346.236 365.307 348.988 362.661 350.908 359.248C352.871 355.835 353.852 351.931 353.852 347.536C353.852 343.099 352.871 339.195 350.908 335.824C348.988 332.411 346.257 329.765 342.716 327.888ZM339.26 357.136C336.956 359.397 333.735 360.528 329.596 360.528H324.412V334.416H329.596C333.735 334.416 336.956 335.568 339.26 337.872C341.564 340.176 342.716 343.397 342.716 347.536C342.716 351.675 341.564 354.875 339.26 357.136ZM368.48 370L371.168 362.064H387.936L390.624 370H402.208L385.952 325.072H373.28L357.024 370H368.48ZM379.552 337.168L385.12 353.616H374.048L379.552 337.168Z" fill="#f2f2f2"/>
</svg>
