<svg width="20" height="20" viewBox="0 0 20 20" fill="none" xmlns="http://www.w3.org/2000/svg">
<path d="M2.49999 0H13.1206L18.75 5.60752V18.75C18.75 19.4406 18.19 20 17.5 20H2.49999C1.80997 20 1.25 19.4406 1.25 18.75V1.24999C1.25 0.559387 1.81003 0 2.49999 0Z" fill="#E2574C"/>
<path d="M18.7319 5.62498H14.375C13.685 5.62498 13.125 5.06501 13.125 4.37499V0.0124817L18.7319 5.62498Z" fill="#B53629"/>
<path d="M14.0613 9.47686C14.2707 9.47686 14.3732 9.29436 14.3732 9.11749C14.3732 8.93435 14.2663 8.75748 14.0613 8.75748H12.8688C12.6357 8.75748 12.5057 8.95058 12.5057 9.16373V12.0943C12.5057 12.3556 12.6545 12.5006 12.8557 12.5006C13.0557 12.5006 13.2051 12.3556 13.2051 12.0943V11.29H13.9264C14.1501 11.29 14.262 11.1068 14.262 10.925C14.262 10.7469 14.1501 10.57 13.9264 10.57H13.2051V9.47686H14.0613ZM10.0307 8.75748H9.1582C8.92132 8.75748 8.75318 8.91999 8.75318 9.16121V12.0969C8.75318 12.3962 8.99504 12.49 9.16816 12.49H10.0838C11.1675 12.49 11.8832 11.7769 11.8832 10.6762C11.8826 9.51249 11.2089 8.75748 10.0307 8.75748ZM10.0726 11.7663H9.54072V9.48125H10.0201C10.7458 9.48125 11.0613 9.96815 11.0613 10.64C11.0613 11.2688 10.7513 11.7663 10.0726 11.7663ZM6.87636 8.75748H6.01199C5.7676 8.75748 5.63135 8.9187 5.63135 9.16373V12.0943C5.63135 12.3556 5.78759 12.5006 5.99757 12.5006C6.20755 12.5006 6.36379 12.3556 6.36379 12.0943V11.2387H6.90565C7.57439 11.2387 8.12628 10.7649 8.12628 10.0031C8.12634 9.2575 7.59386 8.75748 6.87636 8.75748ZM6.862 10.5513H6.36385V9.44562H6.862C7.1695 9.44562 7.36512 9.68561 7.36512 9.99873C7.36448 10.3113 7.1695 10.5513 6.862 10.5513Z" fill="white"/>
</svg>
