<svg width="430" height="503" viewBox="0 0 430 503" fill="none" xmlns="http://www.w3.org/2000/svg">
<path d="M303.75 5V109.75C303.75 121.348 313.152 130.75 324.75 130.75H398V251.5V487C398 493.075 393.075 498 387 498H42C35.9249 498 31 493.075 31 487V16C31 9.92487 35.9249 5 42 5H214.5H303.75ZM313.75 109.75V15.0079L393.004 120.75H324.75C318.675 120.75 313.75 115.825 313.75 109.75Z" stroke="#F2F2F2" stroke-width="10"/>
<path fill-rule="evenodd" clip-rule="evenodd" d="M430 191H0V372H430V191ZM60.44 254.1L69.2 270H80.78L71.06 253.32C74.14 252.4 76.46 250.84 78.02 248.64C79.62 246.44 80.42 243.94 80.42 241.14C80.42 238.66 79.84 236.42 78.68 234.42C77.52 232.38 75.76 230.78 73.4 229.62C71.08 228.46 68.26 227.88 64.94 227.88H47.72V270H57.98V254.1H60.44ZM64.34 246.84H57.98V236.4H64.34C66.22 236.4 67.62 236.86 68.54 237.78C69.5 238.7 69.98 239.96 69.98 241.56C69.98 243.24 69.5 244.54 68.54 245.46C67.62 246.38 66.22 246.84 64.34 246.84ZM97.1206 244.62V236.1H112.661V227.88H86.8606V270H112.661V261.78H97.1206V252.54H110.861V244.62H97.1206ZM126.282 268.92C128.722 269.92 131.482 270.42 134.562 270.42C137.722 270.42 140.462 269.84 142.782 268.68C145.102 267.52 146.862 265.96 148.062 264C149.302 262.04 149.922 259.86 149.922 257.46C149.922 254.94 149.302 252.88 148.062 251.28C146.822 249.68 145.342 248.46 143.622 247.62C141.942 246.78 139.742 245.9 137.022 244.98C134.302 244.1 132.302 243.28 131.022 242.52C129.742 241.76 129.102 240.7 129.102 239.34C129.102 238.1 129.482 237.16 130.242 236.52C131.002 235.84 132.002 235.5 133.242 235.5C134.682 235.5 135.862 235.9 136.782 236.7C137.702 237.46 138.202 238.52 138.282 239.88H149.382C149.182 235.92 147.662 232.84 144.822 230.64C141.982 228.4 138.242 227.28 133.602 227.28C129.042 227.28 125.342 228.4 122.502 230.64C119.662 232.84 118.242 235.9 118.242 239.82C118.242 242.46 118.862 244.6 120.102 246.24C121.342 247.88 122.822 249.12 124.542 249.96C126.262 250.8 128.482 251.64 131.202 252.48C133.082 253.04 134.522 253.54 135.522 253.98C136.562 254.42 137.422 254.98 138.102 255.66C138.822 256.34 139.182 257.2 139.182 258.24C139.182 259.48 138.742 260.46 137.862 261.18C136.982 261.86 135.782 262.2 134.262 262.2C132.782 262.2 131.582 261.8 130.662 261C129.742 260.16 129.202 258.96 129.042 257.4H118.122C118.202 260.16 118.962 262.52 120.402 264.48C121.882 266.44 123.842 267.92 126.282 268.92ZM166.316 253.08V227.88H156.056V253.02C156.056 256.78 156.816 259.98 158.336 262.62C159.856 265.22 161.916 267.18 164.516 268.5C167.156 269.78 170.136 270.42 173.456 270.42C176.776 270.42 179.776 269.76 182.456 268.44C185.176 267.12 187.336 265.16 188.936 262.56C190.536 259.96 191.336 256.78 191.336 253.02V227.88H181.076V253.08C181.076 255.6 180.436 257.54 179.156 258.9C177.876 260.26 176.036 260.94 173.636 260.94C171.236 260.94 169.416 260.26 168.176 258.9C166.936 257.54 166.316 255.6 166.316 253.08ZM246.24 270V227.88H234.18L222.48 257.04L210.66 227.88H198.54V270H208.8V244.68L218.28 270H226.56L235.98 244.74V270H246.24ZM262.618 267.66C265.938 269.5 269.578 270.42 273.538 270.42C277.498 270.42 281.118 269.5 284.398 267.66C287.678 265.82 290.278 263.26 292.198 259.98C294.118 256.66 295.078 252.94 295.078 248.82C295.078 244.7 294.118 241 292.198 237.72C290.318 234.44 287.718 231.88 284.398 230.04C281.118 228.2 277.498 227.28 273.538 227.28C269.578 227.28 265.938 228.2 262.618 230.04C259.338 231.88 256.718 234.44 254.758 237.72C252.838 241 251.878 244.7 251.878 248.82C251.878 252.94 252.838 256.66 254.758 259.98C256.718 263.26 259.338 265.82 262.618 267.66ZM281.578 257.7C279.578 259.94 276.898 261.06 273.538 261.06C270.138 261.06 267.418 259.96 265.378 257.76C263.378 255.52 262.378 252.54 262.378 248.82C262.378 245.06 263.378 242.08 265.378 239.88C267.418 237.68 270.138 236.58 273.538 236.58C276.898 236.58 279.578 237.7 281.578 239.94C283.618 242.14 284.638 245.1 284.638 248.82C284.638 252.5 283.618 255.46 281.578 257.7ZM78.14 314.16C79.26 312.12 79.82 309.88 79.82 307.44C79.82 304.8 79.24 302.46 78.08 300.42C76.92 298.38 75.18 296.78 72.86 295.62C70.54 294.46 67.7 293.88 64.34 293.88H47.72V336H57.98V320.88H64.34C67.78 320.88 70.66 320.26 72.98 319.02C75.3 317.78 77.02 316.16 78.14 314.16ZM67.94 311.34C66.98 312.26 65.52 312.72 63.56 312.72H57.98V302.16H63.56C65.52 302.16 66.98 302.62 67.94 303.54C68.9 304.46 69.38 305.76 69.38 307.44C69.38 309.12 68.9 310.42 67.94 311.34ZM95.4214 336V293.88H85.1614V336H95.4214ZM109.817 334.92C112.257 335.92 115.017 336.42 118.097 336.42C121.257 336.42 123.997 335.84 126.317 334.68C128.637 333.52 130.397 331.96 131.597 330C132.837 328.04 133.457 325.86 133.457 323.46C133.457 320.94 132.837 318.88 131.597 317.28C130.357 315.68 128.877 314.46 127.157 313.62C125.477 312.78 123.277 311.9 120.557 310.98C117.837 310.1 115.837 309.28 114.557 308.52C113.277 307.76 112.637 306.7 112.637 305.34C112.637 304.1 113.017 303.16 113.777 302.52C114.537 301.84 115.537 301.5 116.777 301.5C118.217 301.5 119.397 301.9 120.317 302.7C121.237 303.46 121.737 304.52 121.817 305.88H132.917C132.717 301.92 131.197 298.84 128.357 296.64C125.517 294.4 121.777 293.28 117.137 293.28C112.577 293.28 108.877 294.4 106.037 296.64C103.197 298.84 101.777 301.9 101.777 305.82C101.777 308.46 102.397 310.6 103.637 312.24C104.877 313.88 106.357 315.12 108.077 315.96C109.797 316.8 112.017 317.64 114.737 318.48C116.617 319.04 118.057 319.54 119.057 319.98C120.097 320.42 120.957 320.98 121.637 321.66C122.357 322.34 122.717 323.2 122.717 324.24C122.717 325.48 122.277 326.46 121.397 327.18C120.517 327.86 119.317 328.2 117.797 328.2C116.317 328.2 115.117 327.8 114.197 327C113.277 326.16 112.737 324.96 112.577 323.4H101.657C101.737 326.16 102.497 328.52 103.937 330.48C105.417 332.44 107.377 333.92 109.817 334.92ZM146.551 347.22L162.631 279H152.731L136.651 347.22H146.551ZM167.918 303.78C166.118 307.02 165.218 310.72 165.218 314.88C165.218 319.04 166.118 322.74 167.918 325.98C169.718 329.22 172.218 331.76 175.418 333.6C178.658 335.4 182.318 336.3 186.398 336.3C191.398 336.3 195.678 335 199.238 332.4C202.798 329.76 205.178 326.16 206.378 321.6H195.098C194.258 323.36 193.058 324.7 191.498 325.62C189.978 326.54 188.238 327 186.278 327C183.118 327 180.558 325.9 178.598 323.7C176.638 321.5 175.658 318.56 175.658 314.88C175.658 311.2 176.638 308.26 178.598 306.06C180.558 303.86 183.118 302.76 186.278 302.76C188.238 302.76 189.978 303.22 191.498 304.14C193.058 305.06 194.258 306.4 195.098 308.16H206.378C205.178 303.6 202.798 300 199.238 297.36C195.678 294.72 191.398 293.4 186.398 293.4C182.318 293.4 178.658 294.32 175.418 296.16C172.218 297.96 169.718 300.5 167.918 303.78ZM221.661 333.66C224.981 335.5 228.621 336.42 232.581 336.42C236.541 336.42 240.161 335.5 243.441 333.66C246.721 331.82 249.321 329.26 251.241 325.98C253.161 322.66 254.121 318.94 254.121 314.82C254.121 310.7 253.161 307 251.241 303.72C249.361 300.44 246.761 297.88 243.441 296.04C240.161 294.2 236.541 293.28 232.581 293.28C228.621 293.28 224.981 294.2 221.661 296.04C218.381 297.88 215.761 300.44 213.801 303.72C211.881 307 210.921 310.7 210.921 314.82C210.921 318.94 211.881 322.66 213.801 325.98C215.761 329.26 218.381 331.82 221.661 333.66ZM240.621 323.7C238.621 325.94 235.941 327.06 232.581 327.06C229.181 327.06 226.461 325.96 224.421 323.76C222.421 321.52 221.421 318.54 221.421 314.82C221.421 311.06 222.421 308.08 224.421 305.88C226.461 303.68 229.181 302.58 232.581 302.58C235.941 302.58 238.621 303.7 240.621 305.94C242.661 308.14 243.681 311.1 243.681 314.82C243.681 318.5 242.661 321.46 240.621 323.7ZM287.249 302.1V293.88H259.829V336H270.089V318.96H282.929V310.98H270.089V302.1H287.249ZM302.902 336V293.88H292.642V336H302.902ZM337.757 336H348.017V293.88H337.757V319.98L320.597 293.88H310.337V336H320.597V310.02L337.757 336ZM362.414 334.92C364.854 335.92 367.614 336.42 370.694 336.42C373.854 336.42 376.594 335.84 378.914 334.68C381.234 333.52 382.994 331.96 384.194 330C385.434 328.04 386.054 325.86 386.054 323.46C386.054 320.94 385.434 318.88 384.194 317.28C382.954 315.68 381.474 314.46 379.754 313.62C378.074 312.78 375.874 311.9 373.154 310.98C370.434 310.1 368.434 309.28 367.154 308.52C365.874 307.76 365.234 306.7 365.234 305.34C365.234 304.1 365.614 303.16 366.374 302.52C367.134 301.84 368.134 301.5 369.374 301.5C370.814 301.5 371.994 301.9 372.914 302.7C373.834 303.46 374.334 304.52 374.414 305.88H385.514C385.314 301.92 383.794 298.84 380.954 296.64C378.114 294.4 374.374 293.28 369.734 293.28C365.174 293.28 361.474 294.4 358.634 296.64C355.794 298.84 354.374 301.9 354.374 305.82C354.374 308.46 354.994 310.6 356.234 312.24C357.474 313.88 358.954 315.12 360.674 315.96C362.394 316.8 364.614 317.64 367.334 318.48C369.214 319.04 370.654 319.54 371.654 319.98C372.694 320.42 373.554 320.98 374.234 321.66C374.954 322.34 375.314 323.2 375.314 324.24C375.314 325.48 374.874 326.46 373.994 327.18C373.114 327.86 371.914 328.2 370.394 328.2C368.914 328.2 367.714 327.8 366.794 327C365.874 326.16 365.334 324.96 365.174 323.4H354.254C354.334 326.16 355.094 328.52 356.534 330.48C358.014 332.44 359.974 333.92 362.414 334.92Z" fill="#F2F2F2"/>
</svg>
