<svg width="430" height="503" viewBox="0 0 430 503" fill="none" xmlns="http://www.w3.org/2000/svg">
<path d="M303.75 5V109.75C303.75 121.348 313.152 130.75 324.75 130.75H398V251.5V487C398 493.075 393.075 498 387 498H42C35.9249 498 31 493.075 31 487V16C31 9.92487 35.9249 5 42 5H214.5H303.75ZM313.75 109.75V15.0079L393.004 120.75H324.75C318.675 120.75 313.75 115.825 313.75 109.75Z" stroke="#F2F5F6" stroke-width="10"/>
<path d="M74.696 243.296H67.912V232.16H74.696C76.7013 232.16 78.1947 232.651 79.176 233.632C80.2 234.613 80.712 235.957 80.712 237.664C80.712 239.456 80.2 240.843 79.176 241.824C78.1947 242.805 76.7013 243.296 74.696 243.296Z" fill="#F2F5F6"/>
<path d="M306.417 254.88C304.284 257.269 301.425 258.464 297.841 258.464C294.214 258.464 291.313 257.291 289.137 254.944C287.004 252.555 285.937 249.376 285.937 245.408C285.937 241.397 287.004 238.219 289.137 235.872C291.313 233.525 294.214 232.352 297.841 232.352C301.425 232.352 304.284 233.547 306.417 235.936C308.593 238.283 309.681 241.44 309.681 245.408C309.681 249.333 308.593 252.491 306.417 254.88Z" fill="#F2F5F6"/>
<path d="M135.542 324.88C133.409 327.269 130.55 328.464 126.966 328.464C123.339 328.464 120.438 327.291 118.262 324.944C116.129 322.555 115.062 319.376 115.062 315.408C115.062 311.397 116.129 308.219 118.262 305.872C120.438 303.525 123.339 302.352 126.966 302.352C130.55 302.352 133.409 303.547 135.542 305.936C137.718 308.283 138.806 311.44 138.806 315.408C138.806 319.333 137.718 322.491 135.542 324.88Z" fill="#F2F5F6"/>
<path fill-rule="evenodd" clip-rule="evenodd" d="M430 191H0V372H430V191ZM70.536 251.04L79.88 268H92.232L81.864 250.208C85.1493 249.227 87.624 247.563 89.288 245.216C90.9947 242.869 91.848 240.203 91.848 237.216C91.848 234.571 91.2293 232.181 89.992 230.048C88.7547 227.872 86.8773 226.165 84.36 224.928C81.8853 223.691 78.8773 223.072 75.336 223.072H56.968V268H67.912V251.04H70.536ZM109.662 240.928V231.84H126.238V223.072H98.718V268H126.238V259.232H109.662V249.376H124.318V240.928H109.662ZM140.767 266.848C143.37 267.915 146.314 268.448 149.599 268.448C152.97 268.448 155.892 267.829 158.367 266.592C160.842 265.355 162.719 263.691 163.999 261.6C165.322 259.509 165.983 257.184 165.983 254.624C165.983 251.936 165.322 249.739 163.999 248.032C162.676 246.325 161.098 245.024 159.263 244.128C157.471 243.232 155.124 242.293 152.223 241.312C149.322 240.373 147.188 239.499 145.823 238.688C144.458 237.877 143.775 236.747 143.775 235.296C143.775 233.973 144.18 232.971 144.991 232.288C145.802 231.563 146.868 231.2 148.191 231.2C149.727 231.2 150.986 231.627 151.967 232.48C152.948 233.291 153.482 234.421 153.567 235.872H165.407C165.194 231.648 163.572 228.363 160.543 226.016C157.514 223.627 153.524 222.432 148.575 222.432C143.711 222.432 139.764 223.627 136.735 226.016C133.706 228.363 132.191 231.627 132.191 235.808C132.191 238.624 132.852 240.907 134.175 242.656C135.498 244.405 137.076 245.728 138.911 246.624C140.746 247.52 143.114 248.416 146.015 249.312C148.02 249.909 149.556 250.443 150.623 250.912C151.732 251.381 152.65 251.979 153.375 252.704C154.143 253.429 154.527 254.347 154.527 255.456C154.527 256.779 154.058 257.824 153.119 258.592C152.18 259.317 150.9 259.68 149.279 259.68C147.7 259.68 146.42 259.253 145.439 258.4C144.458 257.504 143.882 256.224 143.711 254.56H132.063C132.148 257.504 132.959 260.021 134.495 262.112C136.074 264.203 138.164 265.781 140.767 266.848ZM183.47 249.952V223.072H172.526V249.888C172.526 253.899 173.337 257.312 174.958 260.128C176.579 262.901 178.777 264.992 181.55 266.4C184.366 267.765 187.545 268.448 191.086 268.448C194.627 268.448 197.827 267.744 200.686 266.336C203.587 264.928 205.891 262.837 207.598 260.064C209.305 257.291 210.158 253.899 210.158 249.888V223.072H199.214V249.952C199.214 252.64 198.531 254.709 197.166 256.16C195.801 257.611 193.838 258.336 191.278 258.336C188.718 258.336 186.777 257.611 185.454 256.16C184.131 254.709 183.47 252.64 183.47 249.952ZM268.723 268V223.072H255.859L243.379 254.176L230.771 223.072H217.843V268H228.787V240.992L238.899 268H247.731L257.779 241.056V268H268.723ZM286.193 265.504C289.734 267.467 293.617 268.448 297.841 268.448C302.065 268.448 305.926 267.467 309.425 265.504C312.924 263.541 315.697 260.811 317.745 257.312C319.793 253.771 320.817 249.803 320.817 245.408C320.817 241.013 319.793 237.067 317.745 233.568C315.74 230.069 312.966 227.339 309.425 225.376C305.926 223.413 302.065 222.432 297.841 222.432C293.617 222.432 289.734 223.413 286.193 225.376C282.694 227.339 279.9 230.069 277.809 233.568C275.761 237.067 274.737 241.013 274.737 245.408C274.737 249.803 275.761 253.771 277.809 257.312C279.9 260.811 282.694 263.541 286.193 265.504ZM57.992 303.632C56.072 307.088 55.112 311.035 55.112 315.472C55.112 319.909 56.072 323.856 57.992 327.312C59.912 330.768 62.5787 333.477 65.992 335.44C69.448 337.36 73.352 338.32 77.704 338.32C83.0373 338.32 87.6027 336.933 91.4 334.16C95.1973 331.344 97.736 327.504 99.016 322.64H86.984C86.088 324.517 84.808 325.947 83.144 326.928C81.5227 327.909 79.6667 328.4 77.576 328.4C74.2053 328.4 71.4747 327.227 69.384 324.88C67.2933 322.533 66.248 319.397 66.248 315.472C66.248 311.547 67.2933 308.411 69.384 306.064C71.4747 303.717 74.2053 302.544 77.576 302.544C79.6667 302.544 81.5227 303.035 83.144 304.016C84.808 304.997 86.088 306.427 86.984 308.304H99.016C97.736 303.44 95.1973 299.6 91.4 296.784C87.6027 293.968 83.0373 292.56 77.704 292.56C73.352 292.56 69.448 293.541 65.992 295.504C62.5787 297.424 59.912 300.133 57.992 303.632ZM115.318 335.504C118.859 337.467 122.742 338.448 126.966 338.448C131.19 338.448 135.051 337.467 138.55 335.504C142.049 333.541 144.822 330.811 146.87 327.312C148.918 323.771 149.942 319.803 149.942 315.408C149.942 311.013 148.918 307.067 146.87 303.568C144.865 300.069 142.091 297.339 138.55 295.376C135.051 293.413 131.19 292.432 126.966 292.432C122.742 292.432 118.859 293.413 115.318 295.376C111.819 297.339 109.025 300.069 106.934 303.568C104.886 307.067 103.862 311.013 103.862 315.408C103.862 319.803 104.886 323.771 106.934 327.312C109.025 330.811 111.819 333.541 115.318 335.504ZM185.279 301.84V293.072H156.031V338H166.975V319.824H180.671V311.312H166.975V301.84H185.279ZM201.975 338V293.072H191.031V338H201.975ZM239.154 338H250.098V293.072H239.154V320.912L220.85 293.072H209.906V338H220.85V310.288L239.154 338ZM265.454 336.848C268.057 337.915 271.001 338.448 274.286 338.448C277.657 338.448 280.58 337.829 283.055 336.592C285.529 335.355 287.406 333.691 288.686 331.6C290.009 329.509 290.671 327.184 290.671 324.624C290.671 321.936 290.009 319.739 288.686 318.032C287.364 316.325 285.785 315.024 283.951 314.128C282.159 313.232 279.812 312.293 276.91 311.312C274.009 310.373 271.876 309.499 270.51 308.688C269.145 307.877 268.462 306.747 268.462 305.296C268.462 303.973 268.868 302.971 269.678 302.288C270.489 301.563 271.556 301.2 272.879 301.2C274.414 301.2 275.673 301.627 276.655 302.48C277.636 303.291 278.169 304.421 278.255 305.872H290.095C289.881 301.648 288.26 298.363 285.23 296.016C282.201 293.627 278.212 292.432 273.263 292.432C268.398 292.432 264.452 293.627 261.422 296.016C258.393 298.363 256.879 301.627 256.879 305.808C256.879 308.624 257.54 310.907 258.862 312.656C260.185 314.405 261.764 315.728 263.599 316.624C265.433 317.52 267.801 318.416 270.703 319.312C272.708 319.909 274.244 320.443 275.31 320.912C276.42 321.381 277.337 321.979 278.062 322.704C278.831 323.429 279.215 324.347 279.215 325.456C279.215 326.779 278.745 327.824 277.806 328.592C276.868 329.317 275.588 329.68 273.966 329.68C272.388 329.68 271.108 329.253 270.126 328.4C269.145 327.504 268.569 326.224 268.398 324.56H256.75C256.836 327.504 257.647 330.021 259.182 332.112C260.761 334.203 262.852 335.781 265.454 336.848Z" fill="#F2F5F6"/>
</svg>
