<svg width="430" height="503" viewBox="0 0 430 503" fill="none" xmlns="http://www.w3.org/2000/svg">
<path d="M303.75 5V109.75C303.75 121.348 313.152 130.75 324.75 130.75H398V251.5V487C398 493.075 393.075 498 387 498H42C35.9249 498 31 493.075 31 487V16C31 9.92487 35.9249 5 42 5H214.5H303.75ZM313.75 109.75V15.0079L393.004 120.75H324.75C318.675 120.75 313.75 115.825 313.75 109.75Z" stroke="#F2F2F2" stroke-width="10"/>
<path fill-rule="evenodd" clip-rule="evenodd" d="M430 191H0V372H430V191ZM60.536 248.04L69.88 265H82.232L71.864 247.208C75.1493 246.227 77.624 244.563 79.288 242.216C80.9947 239.869 81.848 237.203 81.848 234.216C81.848 231.571 81.2293 229.181 79.992 227.048C78.7547 224.872 76.8773 223.165 74.36 221.928C71.8853 220.691 68.8773 220.072 65.336 220.072H46.968V265H57.912V248.04H60.536ZM64.696 240.296H57.912V229.16H64.696C66.7013 229.16 68.1947 229.651 69.176 230.632C70.2 231.613 70.712 232.957 70.712 234.664C70.712 236.456 70.2 237.843 69.176 238.824C68.1947 239.805 66.7013 240.296 64.696 240.296ZM99.662 237.928V228.84H116.238V220.072H88.718V265H116.238V256.232H99.662V246.376H114.318V237.928H99.662ZM130.767 263.848C133.37 264.915 136.314 265.448 139.599 265.448C142.97 265.448 145.892 264.829 148.367 263.592C150.842 262.355 152.719 260.691 153.999 258.6C155.322 256.509 155.983 254.184 155.983 251.624C155.983 248.936 155.322 246.739 153.999 245.032C152.676 243.325 151.098 242.024 149.263 241.128C147.471 240.232 145.124 239.293 142.223 238.312C139.322 237.373 137.188 236.499 135.823 235.688C134.458 234.877 133.775 233.747 133.775 232.296C133.775 230.973 134.18 229.971 134.991 229.288C135.802 228.563 136.868 228.2 138.191 228.2C139.727 228.2 140.986 228.627 141.967 229.48C142.948 230.291 143.482 231.421 143.567 232.872H155.407C155.194 228.648 153.572 225.363 150.543 223.016C147.514 220.627 143.524 219.432 138.575 219.432C133.711 219.432 129.764 220.627 126.735 223.016C123.706 225.363 122.191 228.627 122.191 232.808C122.191 235.624 122.852 237.907 124.175 239.656C125.498 241.405 127.076 242.728 128.911 243.624C130.746 244.52 133.114 245.416 136.015 246.312C138.02 246.909 139.556 247.443 140.623 247.912C141.732 248.381 142.65 248.979 143.375 249.704C144.143 250.429 144.527 251.347 144.527 252.456C144.527 253.779 144.058 254.824 143.119 255.592C142.18 256.317 140.9 256.68 139.279 256.68C137.7 256.68 136.42 256.253 135.439 255.4C134.458 254.504 133.882 253.224 133.711 251.56H122.063C122.148 254.504 122.959 257.021 124.495 259.112C126.074 261.203 128.164 262.781 130.767 263.848ZM173.47 246.952V220.072H162.526V246.888C162.526 250.899 163.337 254.312 164.958 257.128C166.579 259.901 168.777 261.992 171.55 263.4C174.366 264.765 177.545 265.448 181.086 265.448C184.627 265.448 187.827 264.744 190.686 263.336C193.587 261.928 195.891 259.837 197.598 257.064C199.305 254.291 200.158 250.899 200.158 246.888V220.072H189.214V246.952C189.214 249.64 188.531 251.709 187.166 253.16C185.801 254.611 183.838 255.336 181.278 255.336C178.718 255.336 176.777 254.611 175.454 253.16C174.131 251.709 173.47 249.64 173.47 246.952ZM258.723 265V220.072H245.859L233.379 251.176L220.771 220.072H207.843V265H218.787V237.992L228.899 265H237.731L247.779 238.056V265H258.723ZM276.193 262.504C279.734 264.467 283.617 265.448 287.841 265.448C292.065 265.448 295.926 264.467 299.425 262.504C302.924 260.541 305.697 257.811 307.745 254.312C309.793 250.771 310.817 246.803 310.817 242.408C310.817 238.013 309.793 234.067 307.745 230.568C305.74 227.069 302.966 224.339 299.425 222.376C295.926 220.413 292.065 219.432 287.841 219.432C283.617 219.432 279.734 220.413 276.193 222.376C272.694 224.339 269.9 227.069 267.809 230.568C265.761 234.067 264.737 238.013 264.737 242.408C264.737 246.803 265.761 250.771 267.809 254.312C269.9 257.811 272.694 260.541 276.193 262.504ZM296.417 251.88C294.284 254.269 291.425 255.464 287.841 255.464C284.214 255.464 281.313 254.291 279.137 251.944C277.004 249.555 275.937 246.376 275.937 242.408C275.937 238.397 277.004 235.219 279.137 232.872C281.313 230.525 284.214 229.352 287.841 229.352C291.425 229.352 294.284 230.547 296.417 232.936C298.593 235.283 299.681 238.44 299.681 242.408C299.681 246.333 298.593 249.491 296.417 251.88ZM76.216 335H87.16V290.072H76.216V317.912L57.912 290.072H46.968V335H57.912V307.288L76.216 335ZM124.341 298.84V290.072H95.093V335H106.037V316.824H119.733V308.312H106.037V298.84H124.341ZM157.613 317.08V307.992H129.453V317.08H157.613ZM200.69 319.768C200.818 318.659 200.882 317.592 200.882 316.568C200.882 312.984 200.114 309.848 198.578 307.16C197.085 304.472 194.994 302.403 192.306 300.952C189.618 299.501 186.546 298.776 183.09 298.776C179.549 298.776 176.413 299.523 173.682 301.016C170.951 302.509 168.818 304.643 167.282 307.416C165.789 310.189 165.042 313.432 165.042 317.144C165.042 320.856 165.81 324.099 167.346 326.872C168.882 329.645 171.015 331.779 173.746 333.272C176.477 334.765 179.591 335.512 183.09 335.512C185.991 335.512 188.615 334.979 190.962 333.912C193.309 332.845 195.25 331.373 196.786 329.496C198.365 327.619 199.453 325.507 200.05 323.16H188.402C187.335 325.464 185.437 326.616 182.706 326.616C180.871 326.616 179.314 326.04 178.034 324.888C176.797 323.693 176.093 321.987 175.922 319.768H200.69ZM187.762 309.208C189.042 310.317 189.682 311.811 189.682 313.688H175.986C176.285 311.725 177.053 310.211 178.29 309.144C179.57 308.077 181.127 307.544 182.962 307.544C184.882 307.544 186.482 308.099 187.762 309.208Z" fill="#F2F2F2"/>
</svg>
