<svg width="430" height="503" viewBox="0 0 430 503" fill="none" xmlns="http://www.w3.org/2000/svg">
<path d="M303.75 5V109.75C303.75 121.348 313.152 130.75 324.75 130.75H398V251.5V487C398 493.075 393.075 498 387 498H42C35.9249 498 31 493.075 31 487V16C31 9.92487 35.9249 5 42 5H214.5H303.75ZM313.75 109.75V15.0079L393.004 120.75H324.75C318.675 120.75 313.75 115.825 313.75 109.75Z" stroke="#F2F2F2" stroke-width="10"/>
<path fill-rule="evenodd" clip-rule="evenodd" d="M430 191H0V372H430V191ZM70.536 262.04L79.88 279H92.232L81.864 261.208C85.1493 260.227 87.624 258.563 89.288 256.216C90.9947 253.869 91.848 251.203 91.848 248.216C91.848 245.571 91.2293 243.181 89.992 241.048C88.7547 238.872 86.8773 237.165 84.36 235.928C81.8853 234.691 78.8773 234.072 75.336 234.072H56.968V279H67.912V262.04H70.536ZM74.696 254.296H67.912V243.16H74.696C76.7013 243.16 78.1947 243.651 79.176 244.632C80.2 245.613 80.712 246.957 80.712 248.664C80.712 250.456 80.2 251.843 79.176 252.824C78.1947 253.805 76.7013 254.296 74.696 254.296ZM109.662 251.928V242.84H126.238V234.072H98.718V279H126.238V270.232H109.662V260.376H124.318V251.928H109.662ZM140.767 277.848C143.37 278.915 146.314 279.448 149.599 279.448C152.97 279.448 155.892 278.829 158.367 277.592C160.842 276.355 162.719 274.691 163.999 272.6C165.322 270.509 165.983 268.184 165.983 265.624C165.983 262.936 165.322 260.739 163.999 259.032C162.676 257.325 161.098 256.024 159.263 255.128C157.471 254.232 155.124 253.293 152.223 252.312C149.322 251.373 147.188 250.499 145.823 249.688C144.458 248.877 143.775 247.747 143.775 246.296C143.775 244.973 144.18 243.971 144.991 243.288C145.802 242.563 146.868 242.2 148.191 242.2C149.727 242.2 150.986 242.627 151.967 243.48C152.948 244.291 153.482 245.421 153.567 246.872H165.407C165.194 242.648 163.572 239.363 160.543 237.016C157.514 234.627 153.524 233.432 148.575 233.432C143.711 233.432 139.764 234.627 136.735 237.016C133.706 239.363 132.191 242.627 132.191 246.808C132.191 249.624 132.852 251.907 134.175 253.656C135.498 255.405 137.076 256.728 138.911 257.624C140.746 258.52 143.114 259.416 146.015 260.312C148.02 260.909 149.556 261.443 150.623 261.912C151.732 262.381 152.65 262.979 153.375 263.704C154.143 264.429 154.527 265.347 154.527 266.456C154.527 267.779 154.058 268.824 153.119 269.592C152.18 270.317 150.9 270.68 149.279 270.68C147.7 270.68 146.42 270.253 145.439 269.4C144.458 268.504 143.882 267.224 143.711 265.56H132.063C132.148 268.504 132.959 271.021 134.495 273.112C136.074 275.203 138.164 276.781 140.767 277.848ZM183.47 260.952V234.072H172.526V260.888C172.526 264.899 173.337 268.312 174.958 271.128C176.579 273.901 178.777 275.992 181.55 277.4C184.366 278.765 187.545 279.448 191.086 279.448C194.627 279.448 197.827 278.744 200.686 277.336C203.587 275.928 205.891 273.837 207.598 271.064C209.305 268.291 210.158 264.899 210.158 260.888V234.072H199.214V260.952C199.214 263.64 198.531 265.709 197.166 267.16C195.801 268.611 193.838 269.336 191.278 269.336C188.718 269.336 186.777 268.611 185.454 267.16C184.131 265.709 183.47 263.64 183.47 260.952ZM268.723 279V234.072H255.859L243.379 265.176L230.771 234.072H217.843V279H228.787V251.992L238.899 279H247.731L257.779 252.056V279H268.723ZM286.193 276.504C289.734 278.467 293.617 279.448 297.841 279.448C302.065 279.448 305.926 278.467 309.425 276.504C312.924 274.541 315.697 271.811 317.745 268.312C319.793 264.771 320.817 260.803 320.817 256.408C320.817 252.013 319.793 248.067 317.745 244.568C315.74 241.069 312.966 238.339 309.425 236.376C305.926 234.413 302.065 233.432 297.841 233.432C293.617 233.432 289.734 234.413 286.193 236.376C282.694 238.339 279.9 241.069 277.809 244.568C275.761 248.067 274.737 252.013 274.737 256.408C274.737 260.803 275.761 264.771 277.809 268.312C279.9 271.811 282.694 274.541 286.193 276.504ZM306.417 265.88C304.284 268.269 301.425 269.464 297.841 269.464C294.214 269.464 291.313 268.291 289.137 265.944C287.004 263.555 285.937 260.376 285.937 256.408C285.937 252.397 287.004 249.219 289.137 246.872C291.313 244.525 294.214 243.352 297.841 243.352C301.425 243.352 304.284 244.547 306.417 246.936C308.593 249.283 309.681 252.44 309.681 256.408C309.681 260.333 308.593 263.491 306.417 265.88ZM57.992 314.632C56.072 318.088 55.112 322.035 55.112 326.472C55.112 330.909 56.072 334.856 57.992 338.312C59.912 341.768 62.5787 344.477 65.992 346.44C69.448 348.36 73.352 349.32 77.704 349.32C83.0373 349.32 87.6027 347.933 91.4 345.16C95.1973 342.344 97.736 338.504 99.016 333.64H86.984C86.088 335.517 84.808 336.947 83.144 337.928C81.5227 338.909 79.6667 339.4 77.576 339.4C74.2053 339.4 71.4747 338.227 69.384 335.88C67.2933 333.533 66.248 330.397 66.248 326.472C66.248 322.547 67.2933 319.411 69.384 317.064C71.4747 314.717 74.2053 313.544 77.576 313.544C79.6667 313.544 81.5227 314.035 83.144 315.016C84.808 315.997 86.088 317.427 86.984 319.304H99.016C97.736 314.44 95.1973 310.6 91.4 307.784C87.6027 304.968 83.0373 303.56 77.704 303.56C73.352 303.56 69.448 304.541 65.992 306.504C62.5787 308.424 59.912 311.133 57.992 314.632ZM134.966 312.84V304.072H105.718V349H116.662V330.824H130.358V322.312H116.662V312.84H134.966ZM150.318 346.504C153.859 348.467 157.742 349.448 161.966 349.448C166.19 349.448 170.051 348.467 173.55 346.504C177.049 344.541 179.822 341.811 181.87 338.312C183.918 334.771 184.942 330.803 184.942 326.408C184.942 322.013 183.918 318.067 181.87 314.568C179.865 311.069 177.091 308.339 173.55 306.376C170.051 304.413 166.19 303.432 161.966 303.432C157.742 303.432 153.859 304.413 150.318 306.376C146.819 308.339 144.025 311.069 141.934 314.568C139.886 318.067 138.862 322.013 138.862 326.408C138.862 330.803 139.886 334.771 141.934 338.312C144.025 341.811 146.819 344.541 150.318 346.504ZM170.542 335.88C168.409 338.269 165.55 339.464 161.966 339.464C158.339 339.464 155.438 338.291 153.262 335.944C151.129 333.555 150.062 330.376 150.062 326.408C150.062 322.397 151.129 319.219 153.262 316.872C155.438 314.525 158.339 313.352 161.966 313.352C165.55 313.352 168.409 314.547 170.542 316.936C172.718 319.283 173.806 322.44 173.806 326.408C173.806 330.333 172.718 333.491 170.542 335.88ZM223.479 325.704C224.673 323.528 225.271 321.139 225.271 318.536C225.271 315.72 224.652 313.224 223.415 311.048C222.177 308.872 220.321 307.165 217.846 305.928C215.372 304.691 212.342 304.072 208.758 304.072H191.031V349H201.975V332.872H208.758C212.428 332.872 215.5 332.211 217.975 330.888C220.449 329.565 222.284 327.837 223.479 325.704ZM212.598 322.696C211.575 323.677 210.017 324.168 207.926 324.168H201.975V312.904H207.926C210.017 312.904 211.575 313.395 212.598 314.376C213.622 315.357 214.135 316.744 214.135 318.536C214.135 320.328 213.622 321.715 212.598 322.696Z" fill="#F2F2F2"/>
</svg>
