<svg width="430" height="503" viewBox="0 0 430 503" fill="none" xmlns="http://www.w3.org/2000/svg">
<path d="M303.75 5V109.75C303.75 121.348 313.152 130.75 324.75 130.75H398V251.5V487C398 493.075 393.075 498 387 498H42C35.9249 498 31 493.075 31 487V16C31 9.92487 35.9249 5 42 5H214.5H303.75ZM313.75 109.75V15.0079L393.004 120.75H324.75C318.675 120.75 313.75 115.825 313.75 109.75Z" stroke="#F2F5F6" stroke-width="10"/>
<path d="M74.696 243.296H67.912V232.16H74.696C76.7013 232.16 78.1947 232.651 79.176 233.632C80.2 234.613 80.712 235.957 80.712 237.664C80.712 239.456 80.2 240.843 79.176 241.824C78.1947 242.805 76.7013 243.296 74.696 243.296Z" fill="#F2F5F6"/>
<path d="M306.417 254.88C304.284 257.269 301.425 258.464 297.841 258.464C294.214 258.464 291.313 257.291 289.137 254.944C287.004 252.555 285.937 249.376 285.937 245.408C285.937 241.397 287.004 238.219 289.137 235.872C291.313 233.525 294.214 232.352 297.841 232.352C301.425 232.352 304.284 233.547 306.417 235.936C308.593 238.283 309.681 241.44 309.681 245.408C309.681 249.333 308.593 252.491 306.417 254.88Z" fill="#F2F5F6"/>
<path d="M78.536 311.696C77.512 312.677 75.9547 313.168 73.864 313.168H67.912V301.904H73.864C75.9547 301.904 77.512 302.395 78.536 303.376C79.56 304.357 80.072 305.744 80.072 307.536C80.072 309.328 79.56 310.715 78.536 311.696Z" fill="#F2F5F6"/>
<path fill-rule="evenodd" clip-rule="evenodd" d="M430 191H0V372H430V191ZM70.536 251.04L79.88 268H92.232L81.864 250.208C85.1493 249.227 87.624 247.563 89.288 245.216C90.9947 242.869 91.848 240.203 91.848 237.216C91.848 234.571 91.2293 232.181 89.992 230.048C88.7547 227.872 86.8773 226.165 84.36 224.928C81.8853 223.691 78.8773 223.072 75.336 223.072H56.968V268H67.912V251.04H70.536ZM109.662 240.928V231.84H126.238V223.072H98.718V268H126.238V259.232H109.662V249.376H124.318V240.928H109.662ZM140.767 266.848C143.37 267.915 146.314 268.448 149.599 268.448C152.97 268.448 155.892 267.829 158.367 266.592C160.842 265.355 162.719 263.691 163.999 261.6C165.322 259.509 165.983 257.184 165.983 254.624C165.983 251.936 165.322 249.739 163.999 248.032C162.676 246.325 161.098 245.024 159.263 244.128C157.471 243.232 155.124 242.293 152.223 241.312C149.322 240.373 147.188 239.499 145.823 238.688C144.458 237.877 143.775 236.747 143.775 235.296C143.775 233.973 144.18 232.971 144.991 232.288C145.802 231.563 146.868 231.2 148.191 231.2C149.727 231.2 150.986 231.627 151.967 232.48C152.948 233.291 153.482 234.421 153.567 235.872H165.407C165.194 231.648 163.572 228.363 160.543 226.016C157.514 223.627 153.524 222.432 148.575 222.432C143.711 222.432 139.764 223.627 136.735 226.016C133.706 228.363 132.191 231.627 132.191 235.808C132.191 238.624 132.852 240.907 134.175 242.656C135.498 244.405 137.076 245.728 138.911 246.624C140.746 247.52 143.114 248.416 146.015 249.312C148.02 249.909 149.556 250.443 150.623 250.912C151.732 251.381 152.65 251.979 153.375 252.704C154.143 253.429 154.527 254.347 154.527 255.456C154.527 256.779 154.058 257.824 153.119 258.592C152.18 259.317 150.9 259.68 149.279 259.68C147.7 259.68 146.42 259.253 145.439 258.4C144.458 257.504 143.882 256.224 143.711 254.56H132.063C132.148 257.504 132.959 260.021 134.495 262.112C136.074 264.203 138.164 265.781 140.767 266.848ZM183.47 249.952V223.072H172.526V249.888C172.526 253.899 173.337 257.312 174.958 260.128C176.579 262.901 178.777 264.992 181.55 266.4C184.366 267.765 187.545 268.448 191.086 268.448C194.627 268.448 197.827 267.744 200.686 266.336C203.587 264.928 205.891 262.837 207.598 260.064C209.305 257.291 210.158 253.899 210.158 249.888V223.072H199.214V249.952C199.214 252.64 198.531 254.709 197.166 256.16C195.801 257.611 193.838 258.336 191.278 258.336C188.718 258.336 186.777 257.611 185.454 256.16C184.131 254.709 183.47 252.64 183.47 249.952ZM268.723 268V223.072H255.859L243.379 254.176L230.771 223.072H217.843V268H228.787V240.992L238.899 268H247.731L257.779 241.056V268H268.723ZM286.193 265.504C289.734 267.467 293.617 268.448 297.841 268.448C302.065 268.448 305.926 267.467 309.425 265.504C312.924 263.541 315.697 260.811 317.745 257.312C319.793 253.771 320.817 249.803 320.817 245.408C320.817 241.013 319.793 237.067 317.745 233.568C315.74 230.069 312.966 227.339 309.425 225.376C305.926 223.413 302.065 222.432 297.841 222.432C293.617 222.432 289.734 223.413 286.193 225.376C282.694 227.339 279.9 230.069 277.809 233.568C275.761 237.067 274.737 241.013 274.737 245.408C274.737 249.803 275.761 253.771 277.809 257.312C279.9 260.811 282.694 263.541 286.193 265.504ZM89.416 314.704C90.6107 312.528 91.208 310.139 91.208 307.536C91.208 304.72 90.5893 302.224 89.352 300.048C88.1147 297.872 86.2587 296.165 83.784 294.928C81.3093 293.691 78.28 293.072 74.696 293.072H56.968V338H67.912V321.872H74.696C78.3653 321.872 81.4373 321.211 83.912 319.888C86.3867 318.565 88.2213 316.837 89.416 314.704ZM107.85 338V293.072H96.9055V338H107.85ZM123.204 336.848C125.807 337.915 128.751 338.448 132.036 338.448C135.407 338.448 138.33 337.829 140.805 336.592C143.279 335.355 145.156 333.691 146.436 331.6C147.759 329.509 148.421 327.184 148.421 324.624C148.421 321.936 147.759 319.739 146.436 318.032C145.114 316.325 143.535 315.024 141.701 314.128C139.909 313.232 137.562 312.293 134.661 311.312C131.759 310.373 129.626 309.499 128.26 308.688C126.895 307.877 126.213 306.747 126.213 305.296C126.213 303.973 126.618 302.971 127.428 302.288C128.239 301.563 129.306 301.2 130.628 301.2C132.165 301.2 133.423 301.627 134.404 302.48C135.386 303.291 135.919 304.421 136.005 305.872H147.844C147.631 301.648 146.01 298.363 142.98 296.016C139.951 293.627 135.962 292.432 131.012 292.432C126.148 292.432 122.202 293.627 119.173 296.016C116.143 298.363 114.629 301.627 114.629 305.808C114.629 308.624 115.29 310.907 116.613 312.656C117.935 314.405 119.514 315.728 121.349 316.624C123.183 317.52 125.551 318.416 128.452 319.312C130.458 319.909 131.994 320.443 133.061 320.912C134.17 321.381 135.087 321.979 135.812 322.704C136.581 323.429 136.965 324.347 136.965 325.456C136.965 326.779 136.495 327.824 135.557 328.592C134.618 329.317 133.338 329.68 131.717 329.68C130.138 329.68 128.858 329.253 127.877 328.4C126.895 327.504 126.319 326.224 126.148 324.56H114.501C114.586 327.504 115.396 330.021 116.933 332.112C118.511 334.203 120.602 335.781 123.204 336.848Z" fill="#F2F5F6"/>
</svg>
