<svg width="50" height="50" viewBox="0 0 50 50" fill="none" xmlns="http://www.w3.org/2000/svg">
<g clip-path="url(#clip0)">
<path d="M42.75 7.18542C38 2.59375 31.75 0 25.0938 0C5.98958 0 -6.00625 20.6979 3.53333 37.1625L0 50L13.1979 46.5583C18.9479 49.6646 23.6583 49.3896 25.1062 49.5729C47.2583 49.5729 58.2854 22.7729 42.7187 7.26667L42.75 7.18542Z" fill="#ECEFF1"/>
<path d="M25.1396 45.3146L25.1271 45.3125H25.0937C18.4646 45.3125 14.2292 42.1729 13.8125 41.9917L6 44.0229L8.09375 36.4292L7.59583 35.6479C5.53333 32.3646 4.4375 28.5833 4.4375 24.6896C4.4375 6.37082 26.8229 -2.7896 39.7771 10.1583C52.7 22.9708 43.6271 45.3146 25.1396 45.3146Z" fill="#4CAF50"/>
<path d="M36.4729 29.8062L36.4542 29.9625C35.8271 29.65 32.7729 28.1562 32.2042 27.95C30.9271 27.4771 31.2875 27.875 28.8354 30.6833C28.4708 31.0896 28.1083 31.1208 27.4896 30.8396C26.8646 30.5271 24.8583 29.8708 22.4833 27.7458C20.6333 26.0896 19.3917 24.0583 19.025 23.4333C18.4146 22.3792 19.6917 22.2292 20.8542 20.0292C21.0625 19.5917 20.9563 19.2479 20.8021 18.9375C20.6458 18.625 19.4021 15.5625 18.8813 14.3417C18.3813 13.125 17.8667 13.2792 17.4813 13.2792C16.2813 13.175 15.4042 13.1917 14.6313 13.9958C11.2688 17.6917 12.1167 21.5042 14.9938 25.5583C20.6479 32.9583 23.6604 34.3208 29.1688 36.2125C30.6563 36.6854 32.0125 36.6187 33.0854 36.4646C34.2813 36.275 36.7667 34.9625 37.2854 33.4937C37.8167 32.025 37.8167 30.8062 37.6604 30.525C37.5063 30.2437 37.0979 30.0875 36.4729 29.8062Z" fill="#FAFAFA"/>
</g>
<defs>
<clipPath id="clip0">
<rect width="50" height="50" fill="white"/>
</clipPath>
</defs>
</svg>
